<svg id="shop" viewBox="0 0 46 46" fill="none" xmlns="http://www.w3.org/2000/svg">
<g clip-path="url(#clip0_158_895)">
<path d="M22.875 0.0771484C10.4541 0.0771484 0.375 10.1563 0.375 22.5771C0.375 34.998 10.4541 45.0771 22.875 45.0771C35.2959 45.0771 45.375 34.998 45.375 22.5771C45.375 10.1563 35.2959 0.0771484 22.875 0.0771484ZM22.875 1.01465C34.7892 1.01465 44.4375 10.6629 44.4375 22.5771C44.4375 34.4914 34.7892 44.1396 22.875 44.1396C10.9608 44.1396 1.3125 34.4914 1.3125 22.5771C1.3125 10.6629 10.9608 1.01465 22.875 1.01465Z" fill="#CC886A"/>
<path d="M19.9883 8.97654C17.9205 8.97654 16.2383 10.6098 16.2383 12.6256V13.75H15.5348C15.5193 13.749 15.5038 13.749 15.4883 13.75H13.2383C12.6218 13.75 12.1133 14.2479 12.1133 14.8515V29.539C12.1133 30.1427 12.6218 30.6406 13.2383 30.6406H15.4883C15.504 30.6416 15.5198 30.6416 15.5355 30.6406H33.7463C34.2158 30.6406 34.6133 30.2506 34.6133 29.7917V20.2903C34.6133 19.8313 34.2158 19.4414 33.7463 19.4414H32.0588V18.8443C32.0596 18.5186 31.9946 18.196 31.8677 17.8949C31.7408 17.5939 31.5544 17.3203 31.3192 17.09C31.084 16.8597 30.8046 16.6772 30.4971 16.5529C30.1897 16.4286 29.8602 16.365 29.5275 16.3658C29.3918 16.3658 29.259 16.3923 29.1285 16.4121C28.9597 16.3717 28.787 16.3485 28.6133 16.3431V14.8515C28.6133 14.2479 28.1048 13.75 27.4883 13.75H25.2383V12.6256C25.2383 10.6098 23.556 8.97654 21.4883 8.97654C21.2365 8.97474 20.9853 8.99787 20.7383 9.04557C20.4913 8.99787 20.24 8.97474 19.9883 8.97654ZM20.7383 9.82548C22.0358 10.1479 22.9883 11.2597 22.9883 12.6256V13.75H18.4883V12.6256C18.4883 11.2597 19.4408 10.1479 20.7383 9.82548ZM19.074 9.87174C18.2693 10.54 17.7383 11.5145 17.7383 12.6256V13.75H16.9883V12.6256C16.9883 11.3185 17.8628 10.2463 19.074 9.87174ZM22.4025 9.87174C23.6138 10.2463 24.4883 11.3185 24.4883 12.6256V13.75H23.7383V12.6256C23.7383 11.5145 23.2073 10.54 22.4025 9.87174ZM13.2383 14.4844H14.4338C14.3888 14.6033 14.3633 14.7179 14.3633 14.8515C14.3618 14.9984 14.2358 15.2062 14.0115 15.3105C13.7865 15.4155 13.4408 15.4155 13.215 15.3105C12.99 15.2062 12.864 14.9984 12.8633 14.8515C12.8633 14.7994 12.8685 14.7583 12.8865 14.7135C12.9154 14.6454 12.9642 14.5873 13.0268 14.5466C13.0895 14.5058 13.1631 14.4841 13.2383 14.4844ZM15.4883 14.4844C15.504 14.4853 15.5198 14.4853 15.5355 14.4844H17.7383V15.6549C17.2995 15.8055 16.9883 16.2094 16.9883 16.6875C16.9883 17.2911 17.4968 17.789 18.1133 17.789C18.7298 17.789 19.2383 17.2911 19.2383 16.6875C19.2383 16.2094 18.927 15.8055 18.4883 15.6549V14.4844H24.4883V15.6549C24.0495 15.8055 23.7383 16.2094 23.7383 16.6875C23.7383 17.2911 24.2468 17.789 24.8633 17.789C25.4798 17.789 25.9883 17.2911 25.9883 16.6875C25.9883 16.2094 25.677 15.8055 25.2383 15.6549V14.4844H27.4883C27.7028 14.4844 27.8633 14.6415 27.8633 14.8515V16.4584C26.802 16.7616 26.0115 17.7119 26.0115 18.8451V19.4414H25.7303C25.7225 19.4411 25.7148 19.4411 25.707 19.4414C25.6913 19.4404 25.6755 19.4404 25.6598 19.4414H24.2303C23.7608 19.4414 23.3633 19.8313 23.3633 20.2903V29.7917C23.3633 29.8321 23.3805 29.8666 23.3865 29.9062H15.5355C15.5198 29.9053 15.504 29.9053 15.4883 29.9062C15.4402 29.9082 15.3922 29.9005 15.3473 29.8835C15.2778 29.8552 15.2185 29.8074 15.1768 29.7461C15.1351 29.6848 15.113 29.6127 15.1133 29.539V26.4179C15.1172 26.3875 15.1172 26.3566 15.1133 26.3261V20.8411C15.1135 20.8335 15.1135 20.8259 15.1133 20.8183V14.8515C15.1133 14.7994 15.1185 14.7583 15.1365 14.7135C15.1654 14.6454 15.2142 14.5873 15.2768 14.5466C15.3395 14.5058 15.4131 14.4841 15.4883 14.4844ZM12.8633 15.9303C12.873 15.9347 12.8768 15.9487 12.8865 15.9531C13.114 16.0575 13.3621 16.1116 13.6133 16.1116C13.8645 16.1116 14.1126 16.0575 14.34 15.9531C14.3498 15.9487 14.3535 15.9347 14.3633 15.9303V20.8183C14.3611 20.8413 14.3611 20.8644 14.3633 20.8874V26.3489C14.3611 26.3719 14.3611 26.395 14.3633 26.4179V29.539C14.3633 29.6646 14.3933 29.7931 14.4338 29.9062H13.2383C13.1887 29.9074 13.1394 29.8988 13.0933 29.8807C13.0473 29.8627 13.0054 29.8357 12.9704 29.8014C12.9353 29.767 12.9077 29.7261 12.8893 29.681C12.8709 29.6359 12.862 29.5876 12.8633 29.539V15.9303ZM18.1133 16.3203C18.3248 16.3203 18.4883 16.4804 18.4883 16.6875C18.4883 16.8946 18.3248 17.0547 18.1133 17.0547C18.0638 17.0554 18.0148 17.0463 17.9689 17.0281C17.9231 17.0099 17.8815 16.9829 17.8465 16.9487C17.8116 16.9144 17.784 16.8737 17.7654 16.8288C17.7468 16.7839 17.7376 16.7359 17.7383 16.6875C17.7383 16.4804 17.9018 16.3203 18.1133 16.3203ZM24.8633 16.3203C25.0748 16.3203 25.2383 16.4804 25.2383 16.6875C25.2383 16.8946 25.0748 17.0547 24.8633 17.0547C24.8138 17.0554 24.7648 17.0463 24.7189 17.0281C24.6731 17.0099 24.6315 16.9829 24.5965 16.9487C24.5616 16.9144 24.534 16.8737 24.5154 16.8288C24.4968 16.7839 24.4876 16.7359 24.4883 16.6875C24.4883 16.4804 24.6518 16.3203 24.8633 16.3203ZM29.082 17.1692C29.4507 17.2752 29.7739 17.4962 30.0024 17.7986C30.2309 18.1009 30.3523 18.4682 30.348 18.8443V19.4414H27.723V18.8443C27.723 18.0145 28.2968 17.3558 29.082 17.17V17.1692ZM27.3713 17.5364C27.1238 17.9183 26.9723 18.3596 26.9723 18.8443V19.4414H26.7623V18.8443C26.7623 18.32 27.0023 17.8603 27.3713 17.5371V17.5364ZM30.7463 17.5592C31.095 17.8757 31.3088 18.3303 31.3088 18.8443V19.4414H31.0973V18.8443C31.0973 18.3765 30.975 17.9359 30.7463 17.5592ZM24.2303 20.1758H24.8633C24.8558 20.2184 24.816 20.2463 24.816 20.2903C24.816 20.327 24.756 20.4254 24.6525 20.4739C24.5242 20.5226 24.3819 20.5226 24.2535 20.4739C24.2164 20.4571 24.1842 20.4316 24.1597 20.3995C24.1352 20.3674 24.1192 20.3299 24.1133 20.2903C24.1133 20.2565 24.1155 20.2418 24.1365 20.222C24.1583 20.2015 24.198 20.1758 24.2303 20.1758ZM25.707 20.1758C25.7148 20.176 25.7225 20.176 25.7303 20.1758H26.973V20.8411C26.568 20.9858 26.2695 21.3603 26.2695 21.8053C26.2695 22.3737 26.7435 22.8379 27.324 22.8379C27.9053 22.8379 28.3793 22.3737 28.3793 21.8053C28.3793 21.3787 28.101 21.0218 27.723 20.8639V20.1758H31.308V20.8646C30.9195 21.0166 30.6293 21.3713 30.6293 21.8046C30.6293 22.3737 31.1025 22.8379 31.6838 22.8379C32.2643 22.8379 32.7615 22.3737 32.7615 21.8053C32.7615 21.3618 32.4668 20.9872 32.0588 20.8411V20.1758H33.7463C33.8108 20.1758 33.8633 20.2228 33.8633 20.2903V29.7917C33.8633 29.8592 33.8108 29.9062 33.7463 29.9062H25.7535C25.746 29.906 25.7385 29.906 25.731 29.9062C25.7153 29.9062 25.6973 29.9114 25.6838 29.9062C25.6688 29.9011 25.6478 29.8937 25.6365 29.8835C25.6155 29.8629 25.6133 29.8247 25.6133 29.7917V27.7721C25.6155 27.7492 25.6155 27.7261 25.6133 27.7031V24.2376C25.6135 24.23 25.6135 24.2224 25.6133 24.2148V24.1686C25.6135 24.1612 25.6135 24.1539 25.6133 24.1465V20.2896C25.6133 20.2286 25.6508 20.1831 25.707 20.175V20.1758ZM24.84 21.1855L24.8633 22.6543V24.1458C24.8611 24.1687 24.8611 24.1919 24.8633 24.2148V27.7259C24.8623 27.7413 24.8623 27.7567 24.8633 27.7721V29.7917C24.8633 29.8321 24.8805 29.8666 24.8865 29.9062H24.2303C24.2148 29.9065 24.1995 29.9038 24.1851 29.8981C24.1708 29.8925 24.1578 29.884 24.1469 29.8733C24.1359 29.8626 24.1273 29.8499 24.1216 29.8359C24.1158 29.8218 24.113 29.8068 24.1133 29.7917V21.2083C24.3533 21.2825 24.6008 21.2656 24.84 21.1855ZM27.324 21.5072C27.4973 21.5072 27.6293 21.6313 27.6293 21.8053C27.6305 21.8449 27.6235 21.8843 27.6086 21.921C27.5937 21.9578 27.5712 21.9912 27.5426 22.0192C27.514 22.0471 27.4798 22.069 27.4423 22.0835C27.4047 22.098 27.3644 22.1048 27.324 22.1035C27.2837 22.1047 27.2436 22.0978 27.206 22.0833C27.1685 22.0687 27.1345 22.0468 27.1059 22.0189C27.0774 21.9909 27.055 21.9576 27.0402 21.9209C27.0253 21.8841 27.0183 21.8448 27.0195 21.8053C27.0195 21.6313 27.1508 21.5064 27.324 21.5064V21.5072ZM31.6838 21.5072C31.8563 21.5072 32.0115 21.6313 32.0115 21.8053C32.0115 21.9794 31.857 22.1035 31.6838 22.1035C31.6434 22.1048 31.6032 22.098 31.5656 22.0835C31.528 22.069 31.4938 22.0471 31.4652 22.0192C31.4366 21.9912 31.4141 21.9578 31.3992 21.921C31.3843 21.8843 31.3773 21.8449 31.3785 21.8053C31.3785 21.6313 31.5105 21.5064 31.6838 21.5064V21.5072Z" fill="#CC886A"/>
</g>
<defs>
<clipPath id="clip0_158_895">
<rect width="45" height="45" fill="white" transform="translate(0.375 0.188599)"/>
</clipPath>
</defs>
</svg>
