<svg width="85" height="85" viewBox="0 0 85 85" fill="none" xmlns="http://www.w3.org/2000/svg">
<path d="M81.9374 34.0098C82.1116 28.9304 81.2319 24.5722 78.9545 20.0369C77.4094 18.176 75.3588 16.4766 72.9888 16.0447C63.1863 15.1488 53.0019 14.8836 43.1604 15.0466C33.3547 14.8762 23.1 15.165 13.3319 16.0447C11.4007 16.3986 9.78558 17.6792 8.36048 19.0389C5.18982 21.9843 4.73565 26.7572 4.38335 31.0156C3.87222 38.672 3.87222 46.3145 4.38335 53.9709C4.48527 56.3677 4.77695 58.6359 5.37764 60.9573C5.80242 62.7496 7.14338 64.572 8.36048 65.9476C9.79527 67.3794 11.3463 68.5699 13.3319 68.9418C20.9271 69.8862 28.5493 70.1045 36.2004 69.9399C48.5307 70.1173 59.2062 69.9354 71.9945 68.9418C74.0289 68.5928 76.4848 67.401 77.9602 65.9476C78.9465 64.9537 79.5228 64.2917 79.9488 62.9535C81.2087 59.0592 81.9842 55.0723 81.9374 50.9768C82.0783 48.9895 81.9374 36.139 81.9374 34.0098ZM35.2061 52.9729V31.0156L56.086 41.9942C50.2379 45.259 42.4986 48.9984 35.2061 52.9729Z" fill="#B24D2B"/>
</svg>
