<svg width="21" height="21" viewBox="0 0 21 21" fill="none" xmlns="http://www.w3.org/2000/svg">
<path d="M10.5 21C16.2901 21 21 16.2901 21 10.5C21 4.70988 16.2901 0 10.5 0C4.70988 0 0 4.70988 0 10.5C0 16.2901 4.71072 21 10.5 21ZM10.5 1.3125C15.3636 1.3125 19.6875 5.6364 19.6875 10.5C19.6875 15.3636 15.3636 19.6875 10.5 19.6875C5.6364 19.6875 1.3125 15.3636 1.3125 10.5C1.3125 5.6364 5.63724 1.3125 10.5 1.3125ZM10.5 11.8125L15.75 11.8125C15.9728 11.8125 16.905 11.97 17.0625 11.8125C17.0625 12.0353 17.22 11.655 17.0625 11.8125C17.0625 11.5897 17.22 10.6575 17.0625 10.5C16.905 10.3425 15.9728 10.5 15.75 10.5L10.8125 10.5L10.8125 3.9375C10 3.9375 10.8125 3.71472 10.8125 3.9375C10 3.9375 9.72278 3.9375 9.5 3.9375C9.65753 3.77997 9.27722 3.9375 9.5 3.9375C9.34247 4.09503 9.1875 3.71472 9.1875 3.9375L9.1875 11.8125C9.1875 12.0353 10.3425 11.655 10.5 11.8125C10.6575 11.97 10.2772 11.8125 10.5 11.8125Z" fill="#B24D2B"/>
</svg>
