<svg id="ball" viewBox="0 0 46 46" fill="none" xmlns="http://www.w3.org/2000/svg">
<path d="M22.7139 0.466797C10.293 0.466797 0.213867 10.546 0.213867 22.9668C0.213867 35.3876 10.293 45.4668 22.7139 45.4668C35.1347 45.4668 45.2139 35.3876 45.2139 22.9668C45.2139 10.546 35.1347 0.466797 22.7139 0.466797ZM22.7139 1.4043C34.6281 1.4043 44.2764 11.0526 44.2764 22.9668C44.2764 34.881 34.6281 44.5293 22.7139 44.5293C10.7997 44.5293 1.15137 34.881 1.15137 22.9668C1.15137 11.0526 10.7997 1.4043 22.7139 1.4043Z" fill="#CC886A"/>
<path d="M31.8712 14.1051C29.5013 11.7352 26.3497 10.4297 22.9979 10.4297C19.6457 10.4297 16.4941 11.7356 14.1239 14.1055C9.23085 18.9985 9.23085 26.9598 14.1239 31.8528C16.4937 34.2231 19.6453 35.5282 22.9971 35.5282C26.349 35.5282 29.5009 34.2227 31.8708 31.8512C34.2415 29.4821 35.5462 26.3306 35.5462 22.9787C35.5462 19.6269 34.2415 16.4757 31.8712 14.1051ZM30.771 30.7522C29.1564 32.3669 27.1267 33.4146 24.9237 33.8023C24.921 33.7848 24.9198 33.7673 24.9171 33.7502C24.9091 33.6997 24.8912 33.6514 24.8644 33.6078C24.8377 33.5643 24.8026 33.5265 24.7612 33.4966C24.7197 33.4668 24.6728 33.4454 24.6231 33.4337C24.5734 33.422 24.5218 33.4203 24.4714 33.4286C24.3696 33.445 24.2785 33.5012 24.2181 33.5847C24.1578 33.6683 24.133 33.7724 24.1494 33.8742L24.1545 33.912C23.7699 33.9523 23.3834 33.9727 22.9967 33.973C20.0602 33.973 17.2995 32.8293 15.2232 30.7534C12.7865 28.3159 11.7372 25.0103 12.0717 21.8234L12.1024 21.8272C12.2013 21.8373 12.3003 21.8093 12.3792 21.7488C12.4581 21.6882 12.5109 21.5999 12.5267 21.5017C12.5426 21.4036 12.5203 21.3031 12.4645 21.2208C12.4087 21.1386 12.3235 21.0807 12.2265 21.0592L12.181 21.0534C12.5697 18.8373 13.6325 16.7951 15.2244 15.2052C16.7831 13.6474 18.7271 12.6145 20.8415 12.196C20.8524 12.2691 20.8579 12.3434 20.8695 12.4157C20.8777 12.4662 20.8957 12.5145 20.9225 12.558C20.9493 12.6015 20.9844 12.6392 21.0259 12.6691C21.0673 12.699 21.1142 12.7205 21.1639 12.7322C21.2136 12.744 21.2651 12.7459 21.3156 12.7377C21.366 12.7296 21.4143 12.7116 21.4578 12.6848C21.5013 12.6579 21.5391 12.6228 21.569 12.5814C21.5989 12.54 21.6203 12.4931 21.6321 12.4434C21.6439 12.3937 21.6457 12.3421 21.6376 12.2917C21.6263 12.2205 21.6205 12.147 21.61 12.0751C22.0704 12.0165 22.5341 11.9866 22.9983 11.9856C25.9348 11.9856 28.6955 13.1297 30.7714 15.2056C32.8481 17.2823 33.991 20.0426 33.991 22.9795C33.9901 23.4434 33.9602 23.9069 33.9016 24.3671C33.8292 24.357 33.7561 24.3511 33.6842 24.3395C33.6338 24.3313 33.5822 24.3331 33.5325 24.3448C33.4828 24.3566 33.4359 24.378 33.3945 24.4079C33.3531 24.4379 33.318 24.4756 33.2912 24.5192C33.2645 24.5627 33.2466 24.611 33.2385 24.6615C33.2304 24.7118 33.2322 24.7633 33.2439 24.813C33.2557 24.8627 33.2771 24.9095 33.307 24.9509C33.3369 24.9923 33.3746 25.0274 33.418 25.0542C33.4615 25.081 33.5097 25.099 33.5601 25.1071C33.6332 25.1188 33.7071 25.1246 33.7806 25.1351C33.3626 27.2495 32.3293 29.194 30.771 30.7522Z" fill="#CC886A"/>
<path d="M21.3447 26.1283C21.2769 26.0505 21.1811 26.0028 21.0782 25.9958C20.9752 25.9887 20.8737 26.0228 20.796 26.0906C20.7182 26.1583 20.6705 26.2542 20.6635 26.3571C20.6564 26.46 20.6905 26.5615 20.7583 26.6393C21.2016 27.1475 21.6091 27.6858 21.9778 28.2504C22.036 28.3327 22.1238 28.3892 22.2228 28.408C22.3217 28.4269 22.4241 28.4066 22.5085 28.3515C22.5928 28.2964 22.6525 28.2108 22.675 28.1126C22.6975 28.0144 22.6811 27.9113 22.6292 27.825C22.2408 27.2304 21.8116 26.6634 21.3447 26.1283ZM23.6656 29.6835C23.6439 29.6373 23.6133 29.5957 23.5755 29.5613C23.5378 29.5269 23.4936 29.5003 23.4456 29.4829C23.3975 29.4656 23.3465 29.4578 23.2955 29.4602C23.2445 29.4626 23.1944 29.4749 23.1482 29.4966C23.1019 29.5183 23.0604 29.5489 23.026 29.5867C22.9916 29.6244 22.9649 29.6686 22.9476 29.7166C22.9302 29.7647 22.9225 29.8157 22.9249 29.8667C22.9272 29.9177 22.9396 29.9678 22.9613 30.0141C23.2474 30.6243 23.4907 31.2538 23.6893 31.8978C23.7043 31.9466 23.7288 31.9919 23.7613 32.0313C23.7939 32.0706 23.8338 32.1031 23.8789 32.127C23.924 32.1508 23.9734 32.1656 24.0242 32.1704C24.075 32.1752 24.1263 32.1699 24.175 32.1549C24.2238 32.1399 24.2691 32.1154 24.3085 32.0829C24.3478 32.0503 24.3803 32.0104 24.4042 31.9653C24.428 31.9202 24.4428 31.8708 24.4476 31.82C24.4524 31.7692 24.4471 31.7179 24.4321 31.6692C24.2227 30.9904 23.9666 30.3269 23.6656 29.6835ZM18.1426 23.3407C18.0562 23.2893 17.9533 23.2733 17.8554 23.296C17.7575 23.3188 17.6722 23.3785 17.6173 23.4627C17.5624 23.5469 17.5423 23.6491 17.561 23.7479C17.5798 23.8466 17.636 23.9343 17.7179 23.9925C18.2824 24.3609 18.8209 24.7677 19.3295 25.2101C19.4 25.272 19.4907 25.3061 19.5846 25.3058C19.6638 25.3057 19.741 25.2815 19.806 25.2363C19.8711 25.1912 19.9208 25.1273 19.9485 25.0531C19.9762 24.979 19.9807 24.8981 19.9612 24.8214C19.9418 24.7446 19.8994 24.6757 19.8397 24.6237C19.3043 24.1573 18.7373 23.7287 18.1426 23.3407ZM16.2825 22.3063C15.6392 22.0054 14.9757 21.7495 14.2969 21.5406C14.1983 21.5109 14.092 21.5213 14.0011 21.5695C13.9102 21.6177 13.8419 21.6998 13.8111 21.798C13.7961 21.8468 13.7909 21.8981 13.7957 21.949C13.8005 21.9998 13.8153 22.0492 13.8392 22.0944C13.8631 22.1395 13.8956 22.1795 13.935 22.2121C13.9744 22.2446 14.0198 22.2691 14.0686 22.2841C14.7128 22.4823 15.3425 22.7249 15.9531 23.0102C15.9993 23.032 16.0493 23.0445 16.1004 23.0469C16.1514 23.0494 16.2024 23.0417 16.2504 23.0244C16.2984 23.007 16.3426 22.9803 16.3802 22.9459C16.4179 22.9114 16.4484 22.8698 16.47 22.8235C16.4916 22.7772 16.504 22.7272 16.5063 22.6761C16.5086 22.6251 16.5008 22.5741 16.4834 22.5261C16.466 22.478 16.4393 22.4339 16.4048 22.3962C16.3704 22.3585 16.3288 22.3279 16.2825 22.3063ZM28.0604 22.1678C27.4959 21.799 26.9576 21.3917 26.4493 20.9487C26.3715 20.881 26.27 20.847 26.1672 20.854C26.0643 20.861 25.9685 20.9085 25.9005 20.986C25.8328 21.0639 25.7988 21.1654 25.8059 21.2684C25.8129 21.3713 25.8605 21.4672 25.9383 21.5351C26.4737 22.0016 27.0406 22.4308 27.635 22.8196C27.7213 22.87 27.8237 22.8852 27.921 22.8622C28.0182 22.8392 28.1029 22.7797 28.1576 22.696C28.2122 22.6123 28.2326 22.5108 28.2145 22.4125C28.1964 22.3142 28.1413 22.2266 28.0604 22.1678ZM31.7086 23.8786C31.0644 23.6802 30.4348 23.437 29.8244 23.1509C29.7781 23.1281 29.7276 23.1147 29.676 23.1116C29.6244 23.1085 29.5727 23.1157 29.524 23.1328C29.4752 23.1499 29.4303 23.1765 29.392 23.2111C29.3536 23.2458 29.3225 23.2877 29.3006 23.3345C29.2786 23.3813 29.2662 23.432 29.264 23.4836C29.2619 23.5352 29.27 23.5868 29.288 23.6352C29.306 23.6837 29.3335 23.7281 29.3688 23.7658C29.4042 23.8035 29.4467 23.8337 29.4939 23.8548C30.1371 24.1565 30.8006 24.4129 31.4795 24.6221C31.5781 24.6522 31.6847 24.6421 31.7758 24.5938C31.8669 24.5456 31.9352 24.4632 31.9656 24.3647C31.996 24.2661 31.986 24.1595 31.9378 24.0684C31.8896 23.9772 31.8071 23.9089 31.7086 23.8786ZM22.0945 14.259C22.0795 14.2102 22.055 14.1648 22.0224 14.1254C21.9899 14.0861 21.9499 14.0535 21.9047 14.0296C21.8136 13.9813 21.707 13.9712 21.6084 14.0016C21.5595 14.0166 21.5142 14.0411 21.4748 14.0736C21.4354 14.1062 21.4029 14.1462 21.379 14.1913C21.3307 14.2825 21.3206 14.3891 21.3509 14.4877C21.5596 15.1664 21.8154 15.8298 22.1163 16.4729C22.1616 16.5636 22.2406 16.6329 22.3363 16.6661C22.432 16.6994 22.5369 16.694 22.6287 16.6511C22.7205 16.6082 22.7919 16.5311 22.8278 16.4363C22.8636 16.3415 22.861 16.2365 22.8205 16.1436C22.5352 15.5329 22.2926 14.9032 22.0945 14.259ZM23.8025 17.9083C23.7752 17.8643 23.7393 17.8263 23.6971 17.7963C23.6548 17.7664 23.607 17.7451 23.5565 17.7339C23.5059 17.7227 23.4536 17.7217 23.4027 17.7309C23.3517 17.7402 23.3031 17.7595 23.2598 17.7878C23.2164 17.8161 23.1791 17.8527 23.1501 17.8956C23.121 17.9385 23.1009 17.9867 23.0908 18.0375C23.0806 18.0883 23.0808 18.1406 23.0911 18.1914C23.1015 18.2421 23.1219 18.2903 23.1511 18.333C23.5391 18.9274 23.9677 19.4943 24.4336 20.0297C24.47 20.0718 24.515 20.1056 24.5656 20.1287C24.6162 20.1518 24.6712 20.1636 24.7269 20.1635C24.8017 20.1639 24.875 20.1427 24.938 20.1025C25.001 20.0622 25.051 20.0045 25.082 19.9365C25.113 19.8684 25.1237 19.7928 25.1127 19.7188C25.1017 19.6448 25.0695 19.5756 25.0201 19.5195C24.5778 19.011 24.171 18.4727 23.8025 17.9083Z" fill="#CC886A"/>
</svg>
