<svg width="46" height="46" viewBox="0 0 46 46" fill="none" xmlns="http://www.w3.org/2000/svg">
<path d="M22.9277 0.766602C10.5069 0.766602 0.427734 10.8458 0.427734 23.2666C0.427734 35.6874 10.5069 45.7666 22.9277 45.7666C35.3486 45.7666 45.4277 35.6874 45.4277 23.2666C45.4277 10.8458 35.3486 0.766602 22.9277 0.766602ZM22.9277 1.7041C34.8419 1.7041 44.4902 11.3524 44.4902 23.2666C44.4902 35.1808 34.8419 44.8291 22.9277 44.8291C11.0135 44.8291 1.36523 35.1808 1.36523 23.2666C1.36523 11.3524 11.0135 1.7041 22.9277 1.7041Z" fill="#CC886A"/>
<path d="M13.5269 18.9055C13.6456 18.9055 13.7593 18.8584 13.8432 18.7745C13.9271 18.6906 13.9742 18.5769 13.9742 18.4582V17.5636C13.9742 17.445 13.9271 17.3312 13.8432 17.2473C13.7593 17.1635 13.6456 17.1163 13.5269 17.1163C13.4083 17.1163 13.2945 17.1635 13.2106 17.2473C13.1268 17.3312 13.0796 17.445 13.0796 17.5636V18.4582C13.0796 18.5769 13.1268 18.6906 13.2106 18.7745C13.2945 18.8584 13.4083 18.9055 13.5269 18.9055ZM11.1759 18.8541C11.3812 19.4047 12.2141 19.0965 12.0169 18.5481L11.7109 17.7072C11.6908 17.652 11.66 17.6013 11.6204 17.558C11.5807 17.5146 11.5328 17.4795 11.4796 17.4547C11.4263 17.4299 11.3687 17.4158 11.31 17.4132C11.2513 17.4106 11.1927 17.4196 11.1375 17.4397C11.0823 17.4598 11.0315 17.4906 10.9882 17.5303C10.9449 17.57 10.9098 17.6178 10.885 17.6711C10.8601 17.7243 10.846 17.7819 10.8434 17.8406C10.8409 17.8993 10.8499 17.958 10.87 18.0132L11.1759 18.8541ZM15.3045 19.1216C15.416 19.1621 15.539 19.1566 15.6466 19.1065C15.7541 19.0563 15.8373 18.9655 15.8779 18.8541L16.1839 18.0132C16.2039 17.958 16.2129 17.8993 16.2103 17.8406C16.2077 17.7819 16.1936 17.7243 16.1687 17.6711C16.1439 17.6179 16.1088 17.5701 16.0655 17.5304C16.0221 17.4908 15.9714 17.46 15.9162 17.44C15.861 17.4199 15.8023 17.4109 15.7436 17.4135C15.685 17.4161 15.6274 17.4302 15.5741 17.4551C15.5209 17.4799 15.4731 17.515 15.4334 17.5584C15.3938 17.6017 15.363 17.6524 15.343 17.7077L15.0375 18.5481C15.0174 18.6033 15.0083 18.662 15.0109 18.7207C15.0134 18.7794 15.0276 18.837 15.0524 18.8903C15.0772 18.9435 15.1123 18.9914 15.1557 19.031C15.199 19.0707 15.2497 19.1015 15.3049 19.1216H15.3045ZM14.4215 29.1934H12.6323C10.8637 29.2395 10.8628 31.8307 12.6323 31.8772H14.4215C16.1906 31.8307 16.191 29.2395 14.4215 29.1934ZM14.4215 30.9826H12.6323C12.045 30.9723 12.0441 30.0983 12.6323 30.088H14.4215C15.0088 30.0978 15.0097 30.9723 14.4215 30.9826Z" fill="#CC886A"/>
<path d="M35.8123 14.9993C33.2099 15.3684 29.2562 14.2868 27.3235 11.0609C27.1593 10.8028 26.733 10.8028 26.5689 11.0609C25.9568 12.0319 25.1547 12.8692 24.2107 13.5224C21.8879 15.1246 19.3741 15.1358 18.08 14.9993C18.02 14.9931 17.9594 14.9991 17.9017 15.0169C17.8441 15.0347 17.7906 15.064 17.7445 15.103C17.6984 15.1419 17.6607 15.1898 17.6336 15.2437C17.6065 15.2976 17.5905 15.3564 17.5867 15.4167C17.537 16.2285 17.5062 17.8536 17.8314 19.7997H11.2905C10.3293 19.7827 9.49103 20.6246 9.50131 21.5889V31.8768C9.50131 32.8635 10.3038 33.666 11.2905 33.666H27.3932C28.38 33.666 29.1824 32.8635 29.1824 31.8768V30.3873C35.632 26.8116 36.939 18.092 36.1478 15.1031C36.1017 15.0641 36.0482 15.0349 35.9906 15.017C35.933 14.9992 35.8723 14.9932 35.8123 14.9993V14.9993ZM18.0022 20.6943C18.3891 22.4835 19.0936 24.4651 20.3416 26.3048C19.829 26.7892 19.0194 26.8527 18.4629 26.401L11.3258 20.6943H18.0022ZM28.2878 31.8768C28.2878 32.3697 27.8866 32.7714 27.3932 32.7714H11.2905C10.7976 32.7714 10.3959 32.3697 10.3959 31.8768V21.5889C10.3959 21.4418 10.433 21.3027 10.4979 21.1774L17.9038 27.0997C18.768 27.7961 20.0361 27.759 20.8681 27.0294C22.4086 28.9841 24.4965 30.5975 26.9146 31.4295C27.4031 31.3785 27.8441 31.069 28.2878 30.8833V31.8764V31.8768ZM30.8558 28.0613C29.7299 29.0857 28.4144 29.9096 26.9464 30.5125C19.9788 27.8279 18.199 20.1706 18.4589 15.9279C21.0398 16.1842 24.9197 15.028 26.9459 12.0928C28.9865 15.0374 32.8427 16.1802 35.4334 15.9279C35.5072 18.236 35.2152 24.0983 30.8558 28.0613Z" fill="#CC886A"/>
<path d="M29.9311 18.3422L30.8413 17.4319C31.2529 17.0168 30.6244 16.3875 30.2089 16.7994L29.0486 17.9597C25.3226 16.3924 21.5425 19.8688 20.7883 20.8555C20.7214 20.9358 20.6848 21.0369 20.6848 21.1414C20.6848 21.2458 20.7214 21.347 20.7883 21.4272C20.8554 21.5086 21.8605 22.6935 23.3889 23.6189L22.8284 24.1799C22.5435 24.4456 22.7622 24.9568 23.1447 24.9434C23.2034 24.9435 23.2616 24.9319 23.3159 24.9094C23.3702 24.8869 23.4194 24.8539 23.4609 24.8123L24.2124 24.0609C28.1593 26.1247 32.0495 22.7391 33.1056 21.4272C33.1724 21.347 33.2091 21.2458 33.2091 21.1414C33.2091 21.0369 33.1724 20.9358 33.1056 20.8555C33.0295 20.7643 31.7798 19.2869 29.9311 18.3422V18.3422ZM23.7821 22.8062C22.8347 22.2189 22.1038 21.5234 21.7375 21.1414C22.1043 20.7594 22.8347 20.0634 23.7821 19.4761C23.2364 20.4574 23.2364 21.8248 23.7821 22.8062ZM24.2629 21.1414C24.2106 19.1531 26.5182 17.7983 28.226 18.7823L24.5881 22.4202C24.3743 22.0277 24.2625 21.5878 24.2629 21.1409V21.1414ZM26.9467 23.8252C26.2806 23.8249 25.6386 23.5757 25.1468 23.1265L28.9318 19.3414C30.4956 20.9987 29.2463 23.8574 26.9467 23.8252ZM30.1114 22.8062C30.6575 21.8248 30.6575 20.4579 30.1114 19.4761C31.0592 20.0638 31.7896 20.7594 32.1564 21.1414C31.7896 21.5234 31.0592 22.2189 30.1114 22.8062Z" fill="#CC886A"/>
</svg>
