<svg width="46" height="46" viewBox="0 0 46 46" fill="none" xmlns="http://www.w3.org/2000/svg">
<path d="M22.7139 0.766602C10.293 0.766602 0.213867 10.8458 0.213867 23.2666C0.213867 35.6874 10.293 45.7666 22.7139 45.7666C35.1347 45.7666 45.2139 35.6874 45.2139 23.2666C45.2139 10.8458 35.1347 0.766602 22.7139 0.766602ZM22.7139 1.7041C34.6281 1.7041 44.2764 11.3524 44.2764 23.2666C44.2764 35.1808 34.6281 44.8291 22.7139 44.8291C10.7997 44.8291 1.15137 35.1808 1.15137 23.2666C1.15137 11.3524 10.7997 1.7041 22.7139 1.7041Z" fill="#CC886A"/>
<path fill-rule="evenodd" clip-rule="evenodd" d="M15.5 10.9795C15.3674 10.9795 15.2402 11.0322 15.1465 11.1259C15.0527 11.2197 15 11.3469 15 11.4795V35.9795H5.08789V36.9795H40.2711V35.9795H31V11.4795C31 11.3469 30.9473 11.2197 30.8536 11.1259C30.7598 11.0322 30.6326 10.9795 30.5 10.9795H15.5ZM16 11.9795H30V35.9795H16V11.9795ZM19.5 14.9795C19.3674 14.9795 19.2402 15.0322 19.1465 15.1259C19.0527 15.2197 19 15.3469 19 15.4795V27.4795C19 27.6121 19.0527 27.7393 19.1465 27.833C19.2402 27.9268 19.3674 27.9795 19.5 27.9795H26.5C26.6326 27.9795 26.7598 27.9268 26.8536 27.833C26.9473 27.7393 27 27.6121 27 27.4795V15.4795C27 15.3469 26.9473 15.2197 26.8536 15.1259C26.7598 15.0322 26.6326 14.9795 26.5 14.9795H19.5ZM20 15.9795H22.5V20.9795H20V15.9795ZM23.5 15.9795H26V20.9795H23.5V15.9795ZM20 21.9795H22.5V26.9795H20V21.9795ZM23.5 21.9795H26V26.9795H23.5V21.9795ZM17.5 25.9795C17.3674 25.9795 17.2402 26.0322 17.1465 26.1259C17.0527 26.2197 17 26.3469 17 26.4795C17 26.6121 17.0527 26.7393 17.1465 26.833C17.2402 26.9268 17.3674 26.9795 17.5 26.9795C17.6326 26.9795 17.7598 26.9268 17.8536 26.833C17.9473 26.7393 18 26.6121 18 26.4795C18 26.3469 17.9473 26.2197 17.8536 26.1259C17.7598 26.0322 17.6326 25.9795 17.5 25.9795ZM19.5 31.9795C19.3674 31.9795 19.2402 32.0322 19.1465 32.1259C19.0527 32.2197 19 32.3469 19 32.4795V34.4795C19 34.6121 19.0527 34.7393 19.1465 34.833C19.2402 34.9268 19.3674 34.9795 19.5 34.9795H26.5C26.6326 34.9795 26.7598 34.9268 26.8536 34.833C26.9473 34.7393 27 34.6121 27 34.4795V32.4795C27 32.3469 26.9473 32.2197 26.8536 32.1259C26.7598 32.0322 26.6326 31.9795 26.5 31.9795H19.5ZM20 32.9795H26V33.9795H20V32.9795Z" fill="#CC886A"/>
</svg>
