<svg width="45" height="46" viewBox="0 0 45 46" fill="none" xmlns="http://www.w3.org/2000/svg">
<path d="M22.5 0.766602C10.0791 0.766602 0 10.8458 0 23.2666C0 35.6874 10.0791 45.7666 22.5 45.7666C34.9209 45.7666 45 35.6874 45 23.2666C45 10.8458 34.9209 0.766602 22.5 0.766602ZM22.5 1.7041C34.4142 1.7041 44.0625 11.3524 44.0625 23.2666C44.0625 35.1808 34.4142 44.8291 22.5 44.8291C10.5858 44.8291 0.9375 35.1808 0.9375 23.2666C0.9375 11.3524 10.5858 1.7041 22.5 1.7041Z" fill="#CC886A"/>
<path d="M15.2813 13.6416C14.7158 13.6416 14.25 14.1074 14.25 14.6729V15.3837C14.2499 15.7947 14.1962 16.2039 14.0902 16.6009L13.0575 20.4736C12.9363 20.9286 12.8749 21.3974 12.875 21.8682V22.751C12.8753 23.22 13.0035 23.68 13.2457 24.0816C13.488 24.4832 13.8352 24.8111 14.25 25.03V31.8604C14.25 32.4258 14.7158 32.8916 15.2813 32.8916H29.7188C30.2842 32.8916 30.75 32.4258 30.75 31.8604V25.03C31.1647 24.8111 31.5119 24.4833 31.7542 24.0818C31.9965 23.6802 32.1247 23.2203 32.125 22.7513V21.8686C32.125 21.3976 32.0638 20.9291 31.9425 20.474L30.9098 16.6013C30.8039 16.2043 30.7501 15.7953 30.75 15.3844V14.6729C30.75 14.1074 30.2842 13.6416 29.7188 13.6416H15.2813ZM15.2813 14.3291H29.7188C29.9126 14.3291 30.0625 14.479 30.0625 14.6729V15.3837C30.0625 15.491 30.0659 15.5975 30.0728 15.7041H14.9272C14.9337 15.5975 14.9375 15.491 14.9375 15.3837V14.6729C14.9375 14.479 15.087 14.3291 15.2813 14.3291ZM14.8423 16.3916H30.1581C30.1825 16.5212 30.211 16.6504 30.2454 16.7783L31.278 20.651C31.2962 20.7204 31.3117 20.7906 31.3268 20.8607H13.6735C13.689 20.7906 13.7041 20.7204 13.7227 20.651L14.7553 16.7783C14.7893 16.6504 14.8179 16.5212 14.8423 16.3916ZM13.5738 21.5479H31.4262C31.4334 21.6544 31.4375 21.761 31.4375 21.8682V22.751C31.4375 23.8042 30.6005 24.6416 29.5469 24.6416C28.4933 24.6416 27.6562 23.8042 27.6562 22.751V22.5791C27.6562 22.4879 27.62 22.4005 27.5556 22.336C27.4911 22.2716 27.4037 22.2354 27.3125 22.2354C27.2213 22.2354 27.1339 22.2716 27.0694 22.336C27.005 22.4005 26.9688 22.4879 26.9688 22.5791C26.9688 23.7276 26.0551 24.6416 24.9062 24.6416C23.7574 24.6416 22.8438 23.7276 22.8438 22.5791C22.8438 22.4879 22.8075 22.4005 22.7431 22.336C22.6786 22.2716 22.5912 22.2354 22.5 22.2354C22.4088 22.2354 22.3214 22.2716 22.2569 22.336C22.1925 22.4005 22.1562 22.4879 22.1562 22.5791C22.1562 23.7276 21.2426 24.6416 20.0938 24.6416C18.9449 24.6416 18.0312 23.7276 18.0312 22.5791C18.0312 22.4879 17.995 22.4005 17.9306 22.336C17.8661 22.2716 17.7787 22.2354 17.6875 22.2354C17.5963 22.2354 17.5089 22.2716 17.4444 22.336C17.38 22.4005 17.3438 22.4879 17.3438 22.5791V22.751C17.3438 23.8042 16.5067 24.6416 15.4531 24.6416C14.3995 24.6416 13.5625 23.8042 13.5625 22.751V21.8682C13.5625 21.761 13.5666 21.6544 13.5742 21.5479H13.5738ZM22.5 23.8386C22.9606 24.7131 23.8502 25.3291 24.9062 25.3291C25.9354 25.3291 26.7996 24.7385 27.2713 23.9005C27.6965 24.7379 28.5435 25.3291 29.5469 25.3291C29.72 25.3293 29.8928 25.312 30.0625 25.2775V31.8604C30.0625 32.0542 29.9126 32.2041 29.7188 32.2041H21.8125V29.4541C21.8125 27.9364 20.5802 26.7041 19.0625 26.7041C17.5448 26.7041 16.3125 27.9364 16.3125 29.4541V32.2041H15.2813C15.0874 32.2041 14.9375 32.0542 14.9375 31.8604V25.2775C15.1042 25.3112 15.2764 25.3291 15.4531 25.3291C16.4562 25.3291 17.3032 24.7382 17.7291 23.9005C18.2007 24.7385 19.0646 25.3291 20.0941 25.3291C21.1497 25.3291 22.0394 24.7131 22.5003 23.8386H22.5ZM19.0625 27.3916C20.211 27.3916 21.125 28.3056 21.125 29.4541V32.2041H17V29.4541C17 28.3056 17.914 27.3916 19.0625 27.3916Z" fill="#CC886A"/>
</svg>
