<svg id="prize" viewBox="0 0 46 46" fill="none" xmlns="http://www.w3.org/2000/svg">
<path d="M22.7139 0.466797C10.293 0.466797 0.213867 10.546 0.213867 22.9668C0.213867 35.3876 10.293 45.4668 22.7139 45.4668C35.1347 45.4668 45.2139 35.3876 45.2139 22.9668C45.2139 10.546 35.1347 0.466797 22.7139 0.466797ZM22.7139 1.4043C34.6281 1.4043 44.2764 11.0526 44.2764 22.9668C44.2764 34.881 34.6281 44.5293 22.7139 44.5293C10.7997 44.5293 1.15137 34.881 1.15137 22.9668C1.15137 11.0526 10.7997 1.4043 22.7139 1.4043Z" fill="#CC886A"/>
<path d="M28.8441 28.6744C29.6158 28.673 30.3554 28.3659 30.9011 27.8202C31.4468 27.2745 31.7539 26.5349 31.7553 25.7632V14.6388C32.3615 14.5118 32.8988 14.1641 33.263 13.6632C33.6272 13.1622 33.7922 12.5438 33.7259 11.9281C33.6597 11.3123 33.367 10.7431 32.9047 10.331C32.4424 9.91895 31.8434 9.69341 31.2241 9.69819H14.7925C14.1732 9.69341 13.5743 9.91895 13.1119 10.331C12.6496 10.7431 12.3569 11.3123 12.2907 11.9281C12.2245 12.5438 12.3895 13.1622 12.7536 13.6632C13.1178 14.1641 13.6551 14.5118 14.2613 14.6388V25.7632C14.2627 26.5321 14.5676 27.2694 15.1099 27.8146C15.6521 28.3598 16.3877 28.6688 17.1566 28.6744H20.3441V29.7369H19.7225C19.0978 29.7366 18.4921 29.9521 18.008 30.3471C17.5239 30.7421 17.1912 31.2923 17.0663 31.9044H16.0941C15.79 31.8744 15.4829 31.9083 15.1927 32.0041C14.9025 32.0999 14.6356 32.2553 14.4091 32.4605C14.1827 32.6657 14.0017 32.916 13.8778 33.1954C13.7539 33.4748 13.6899 33.777 13.6899 34.0826C13.6899 34.3882 13.7539 34.6904 13.8778 34.9697C14.0017 35.2491 14.1827 35.4994 14.4091 35.7046C14.6356 35.9098 14.9025 36.0653 15.1927 36.1611C15.4829 36.2568 15.79 36.2908 16.0941 36.2607H29.9066C30.2027 36.2753 30.4988 36.2296 30.7767 36.1263C31.0547 36.023 31.3087 35.8644 31.5235 35.6599C31.7382 35.4555 31.9092 35.2096 32.0261 34.937C32.1429 34.6645 32.2031 34.3711 32.2031 34.0746C32.2031 33.7781 32.1429 33.4847 32.0261 33.2122C31.9092 32.9396 31.7382 32.6937 31.5235 32.4893C31.3087 32.2848 31.0547 32.1262 30.7767 32.0229C30.4988 31.9196 30.2027 31.8739 29.9066 31.8885H28.9291C28.8041 31.2764 28.4715 30.7262 27.9874 30.3312C27.5033 29.9362 26.8976 29.7206 26.2728 29.721H25.6566V28.6585L28.8441 28.6744ZM15.3238 17.821V14.7026H30.6769V17.821C30.6769 19.857 29.8681 21.8095 28.4285 23.2492C26.9889 24.6888 25.0363 25.4976 23.0003 25.4976C20.9644 25.4976 19.0118 24.6888 17.5722 23.2492C16.1326 21.8095 15.3238 19.857 15.3238 17.821ZM25.6566 26.1669C26.2982 25.9574 26.9133 25.6739 27.4894 25.3223V27.6385H25.6566V26.1669ZM30.6557 25.7898C30.6489 26.2691 30.4562 26.727 30.1182 27.067C29.7802 27.407 29.3234 27.6024 28.8441 27.6119H28.5891V24.5732C29.4532 23.864 30.1743 22.9968 30.7141 22.0179L30.6557 25.7898ZM13.3528 12.2004C13.3528 11.8186 13.5045 11.4524 13.7745 11.1824C14.0445 10.9124 14.4107 10.7607 14.7925 10.7607H31.2082C31.59 10.7607 31.9562 10.9124 32.2262 11.1824C32.4962 11.4524 32.6478 11.8186 32.6478 12.2004C32.6478 12.5822 32.4962 12.9484 32.2262 13.2184C31.9562 13.4884 31.59 13.6401 31.2082 13.6401H14.7925C14.4107 13.6401 14.0445 13.4884 13.7745 13.2184C13.5045 12.9484 13.3528 12.5822 13.3528 12.2004ZM15.3238 25.7632V21.9966C15.8636 22.9755 16.5847 23.8427 17.4488 24.5519V27.6119H17.1566C16.669 27.6077 16.2029 27.4111 15.8596 27.0649C15.5164 26.7186 15.3238 26.2508 15.3238 25.7632ZM18.5113 27.6119V25.2957C19.0862 25.6566 19.7013 25.949 20.3441 26.1669V27.6385L18.5113 27.6119ZM31.0169 34.0773C31.0155 34.3723 30.8985 34.655 30.6908 34.8646C30.4832 35.0743 30.2016 35.194 29.9066 35.1982H16.0941C15.94 35.2088 15.7855 35.1876 15.64 35.1359C15.4944 35.0843 15.3611 35.0032 15.2482 34.8979C15.1354 34.7925 15.0454 34.665 14.9838 34.5234C14.9223 34.3818 14.8905 34.229 14.8905 34.0746C14.8905 33.9202 14.9223 33.7674 14.9838 33.6258C15.0454 33.4842 15.1354 33.3567 15.2482 33.2513C15.3611 33.146 15.4944 33.0649 15.64 33.0133C15.7855 32.9616 15.94 32.9404 16.0941 32.951H29.9066C30.2025 32.9552 30.4849 33.0757 30.6927 33.2865C30.9005 33.4972 31.0169 33.7813 31.0169 34.0773ZM27.8294 31.8885H18.1766C18.2886 31.5672 18.4973 31.2884 18.7741 31.0906C19.0509 30.8927 19.3823 30.7854 19.7225 30.7835H26.2782C26.6184 30.7854 26.9497 30.8927 27.2266 31.0906C27.5034 31.2884 27.7121 31.5672 27.8241 31.8885H27.8294ZM21.4066 29.721V26.406C22.4728 26.6185 23.5704 26.6185 24.6366 26.406V29.721H21.4066Z" fill="#CC886A"/>
</svg>
