<svg width="58" height="54" viewBox="0 0 58 54" fill="none" xmlns="http://www.w3.org/2000/svg">
<path d="M22.5117 0.466797C10.0909 0.466797 0.0117188 10.546 0.0117188 22.9668C0.0117188 35.3876 10.0909 45.4668 22.5117 45.4668C34.9326 45.4668 45.0117 35.3876 45.0117 22.9668C45.0117 10.546 34.9326 0.466797 22.5117 0.466797ZM22.5117 1.4043C34.4259 1.4043 44.0742 11.0526 44.0742 22.9668C44.0742 34.881 34.4259 44.5293 22.5117 44.5293C10.5975 44.5293 0.949219 34.881 0.949219 22.9668C0.949219 11.0526 10.5975 1.4043 22.5117 1.4043Z" fill="#CC886A"/>
<path d="M19.625 9.36619C17.5573 9.36619 15.875 10.9994 15.875 13.0153V14.1396H15.1715C15.156 14.1387 15.1405 14.1387 15.125 14.1396H12.875C12.2585 14.1396 11.75 14.6375 11.75 15.2412V29.9287C11.75 30.5323 12.2585 31.0302 12.875 31.0302H15.125C15.1407 31.0312 15.1565 31.0312 15.1723 31.0302H33.383C33.8525 31.0302 34.25 30.6403 34.25 30.1813V20.68C34.25 20.221 33.8525 19.831 33.383 19.831H31.6955V19.234C31.6963 18.9083 31.6314 18.5856 31.5044 18.2846C31.3775 17.9835 31.1911 17.71 30.9559 17.4797C30.7207 17.2494 30.4413 17.0668 30.1339 16.9426C29.8264 16.8183 29.4969 16.7547 29.1642 16.7555C29.0285 16.7555 28.8958 16.7819 28.7653 16.8017C28.5964 16.7613 28.4237 16.7382 28.25 16.7327V15.2412C28.25 14.6375 27.7415 14.1396 27.125 14.1396H24.875V13.0153C24.875 10.9994 23.1927 9.36619 21.125 9.36619C20.8733 9.36439 20.622 9.38752 20.375 9.43522C20.128 9.38752 19.8767 9.36439 19.625 9.36619ZM20.375 10.2151C21.6725 10.5375 22.625 11.6494 22.625 13.0153V14.1396H18.125V13.0153C18.125 11.6494 19.0775 10.5375 20.375 10.2151ZM18.7108 10.2614C17.906 10.9297 17.375 11.9042 17.375 13.0153V14.1396H16.625V13.0153C16.625 11.7081 17.4995 10.6359 18.7108 10.2614ZM22.0392 10.2614C23.2505 10.6359 24.125 11.7081 24.125 13.0153V14.1396H23.375V13.0153C23.375 11.9042 22.844 10.9297 22.0392 10.2614ZM12.875 14.874H14.0705C14.0255 14.993 14 15.1075 14 15.2412C13.9985 15.3881 13.8725 15.5959 13.6483 15.7002C13.4233 15.8052 13.0775 15.8052 12.8517 15.7002C12.6267 15.5959 12.5008 15.3881 12.5 15.2412C12.5 15.189 12.5053 15.1479 12.5233 15.1031C12.5521 15.0351 12.6009 14.977 12.6636 14.9362C12.7262 14.8954 12.7998 14.8738 12.875 14.874ZM15.125 14.874C15.1407 14.875 15.1565 14.875 15.1723 14.874H17.375V16.0446C16.9363 16.1951 16.625 16.599 16.625 17.0771C16.625 17.6808 17.1335 18.1787 17.75 18.1787C18.3665 18.1787 18.875 17.6808 18.875 17.0771C18.875 16.599 18.5637 16.1951 18.125 16.0446V14.874H24.125V16.0446C23.6862 16.1951 23.375 16.599 23.375 17.0771C23.375 17.6808 23.8835 18.1787 24.5 18.1787C25.1165 18.1787 25.625 17.6808 25.625 17.0771C25.625 16.599 25.3138 16.1951 24.875 16.0446V14.874H27.125C27.3395 14.874 27.5 15.0312 27.5 15.2412V16.848C26.4388 17.1513 25.6483 18.1016 25.6483 19.2347V19.831H25.367C25.3593 19.8308 25.3515 19.8308 25.3438 19.831C25.328 19.8301 25.3122 19.8301 25.2965 19.831H23.867C23.3975 19.831 23 20.221 23 20.68V30.1813C23 30.2217 23.0173 30.2562 23.0233 30.2959H15.1723C15.1565 30.2949 15.1407 30.2949 15.125 30.2959C15.0769 30.2979 15.0289 30.2901 14.984 30.2731C14.9145 30.2449 14.8552 30.1971 14.8135 30.1357C14.7719 30.0744 14.7498 30.0023 14.75 29.9287V26.8076C14.7539 26.7771 14.7539 26.7463 14.75 26.7158V21.2307C14.7502 21.2232 14.7502 21.2156 14.75 21.208V15.2412C14.75 15.189 14.7553 15.1479 14.7733 15.1031C14.8021 15.0351 14.8509 14.977 14.9136 14.9362C14.9762 14.8954 15.0498 14.8738 15.125 14.874ZM12.5 16.32C12.5098 16.3244 12.5135 16.3383 12.5233 16.3427C12.7507 16.4471 12.9988 16.5013 13.25 16.5013C13.5012 16.5013 13.7493 16.4471 13.9767 16.3427C13.9865 16.3383 13.9903 16.3244 14 16.32V21.208C13.9978 21.2309 13.9978 21.2541 14 21.277V26.7386C13.9978 26.7615 13.9978 26.7846 14 26.8076V29.9287C14 30.0543 14.03 30.1828 14.0705 30.2959H12.875C12.8254 30.2971 12.7761 30.2884 12.73 30.2704C12.684 30.2524 12.6422 30.2254 12.6071 30.191C12.572 30.1567 12.5444 30.1157 12.526 30.0706C12.5076 30.0255 12.4988 29.9772 12.5 29.9287V16.32ZM17.75 16.7099C17.9615 16.7099 18.125 16.87 18.125 17.0771C18.125 17.2842 17.9615 17.4443 17.75 17.4443C17.7006 17.445 17.6515 17.436 17.6057 17.4178C17.5598 17.3996 17.5182 17.3725 17.4833 17.3383C17.4483 17.3041 17.4207 17.2633 17.4021 17.2185C17.3835 17.1736 17.3743 17.1255 17.375 17.0771C17.375 16.87 17.5385 16.7099 17.75 16.7099ZM24.5 16.7099C24.7115 16.7099 24.875 16.87 24.875 17.0771C24.875 17.2842 24.7115 17.4443 24.5 17.4443C24.4506 17.445 24.4015 17.436 24.3557 17.4178C24.3098 17.3996 24.2682 17.3725 24.2333 17.3383C24.1983 17.3041 24.1707 17.2633 24.1521 17.2185C24.1335 17.1736 24.1243 17.1255 24.125 17.0771C24.125 16.87 24.2885 16.7099 24.5 16.7099ZM28.7188 17.5589C29.0874 17.6648 29.4106 17.8858 29.6391 18.1882C29.8677 18.4906 29.989 18.8578 29.9847 19.234V19.831H27.3597V19.234C27.3597 18.4041 27.9335 17.7454 28.7188 17.5596V17.5589ZM27.008 17.9261C26.7605 18.3079 26.609 18.7493 26.609 19.234V19.831H26.399V19.234C26.399 18.7096 26.639 18.2499 27.008 17.9268V17.9261ZM30.383 17.9488C30.7318 18.2653 30.9455 18.7199 30.9455 19.234V19.831H30.734V19.234C30.734 18.7662 30.6117 18.3256 30.383 17.9488ZM23.867 20.5654H24.5C24.4925 20.608 24.4528 20.6359 24.4528 20.68C24.4528 20.7167 24.3927 20.8151 24.2892 20.8636C24.1609 20.9122 24.0186 20.9122 23.8903 20.8636C23.8531 20.8468 23.8209 20.8212 23.7964 20.7892C23.7719 20.7571 23.756 20.7196 23.75 20.68C23.75 20.6462 23.7522 20.6315 23.7733 20.6117C23.795 20.5911 23.8348 20.5654 23.867 20.5654ZM25.3438 20.5654C25.3515 20.5656 25.3593 20.5656 25.367 20.5654H26.6097V21.2307C26.2048 21.3754 25.9062 21.75 25.9062 22.195C25.9062 22.7634 26.3802 23.2275 26.9608 23.2275C27.542 23.2275 28.016 22.7634 28.016 22.195C28.016 21.7683 27.7378 21.4114 27.3597 21.2535V20.5654H30.9447V21.2542C30.5562 21.4063 30.266 21.761 30.266 22.1942C30.266 22.7634 30.7393 23.2275 31.3205 23.2275C31.901 23.2275 32.3983 22.7634 32.3983 22.195C32.3983 21.7514 32.1035 21.3769 31.6955 21.2307V20.5654H33.383C33.4475 20.5654 33.5 20.6124 33.5 20.68V30.1813C33.5 30.2489 33.4475 30.2959 33.383 30.2959H25.3903C25.3828 30.2957 25.3752 30.2957 25.3678 30.2959C25.352 30.2959 25.334 30.301 25.3205 30.2959C25.3055 30.2907 25.2845 30.2834 25.2733 30.2731C25.2522 30.2525 25.25 30.2144 25.25 30.1813V28.1618C25.2522 28.1388 25.2522 28.1157 25.25 28.0927V24.6272C25.2502 24.6196 25.2502 24.6121 25.25 24.6045V24.5582C25.2502 24.5509 25.2502 24.5435 25.25 24.5362V20.6792C25.25 20.6183 25.2875 20.5727 25.3438 20.5647V20.5654ZM24.4767 21.5752L24.5 23.0439V24.5354C24.4978 24.5584 24.4978 24.5815 24.5 24.6045V28.1155C24.499 28.1309 24.499 28.1464 24.5 28.1618V30.1813C24.5 30.2217 24.5173 30.2562 24.5233 30.2959H23.867C23.8516 30.2962 23.8362 30.2934 23.8219 30.2878C23.8075 30.2821 23.7945 30.2737 23.7836 30.263C23.7727 30.2523 23.7641 30.2395 23.7583 30.2255C23.7525 30.2115 23.7497 30.1964 23.75 30.1813V21.5979C23.99 21.6721 24.2375 21.6552 24.4767 21.5752ZM26.9608 21.8968C27.134 21.8968 27.266 22.0209 27.266 22.195C27.2673 22.2345 27.2602 22.2739 27.2453 22.3107C27.2304 22.3475 27.2079 22.3809 27.1793 22.4088C27.1507 22.4368 27.1166 22.4587 27.079 22.4732C27.0414 22.4877 27.0011 22.4945 26.9608 22.4931C26.9204 22.4944 26.8803 22.4875 26.8428 22.4729C26.8053 22.4584 26.7712 22.4365 26.7427 22.4085C26.7141 22.3806 26.6917 22.3472 26.6769 22.3105C26.662 22.2738 26.655 22.2345 26.6562 22.195C26.6562 22.0209 26.7875 21.8961 26.9608 21.8961V21.8968ZM31.3205 21.8968C31.493 21.8968 31.6483 22.0209 31.6483 22.195C31.6483 22.369 31.4937 22.4931 31.3205 22.4931C31.2801 22.4945 31.2399 22.4877 31.2023 22.4732C31.1647 22.4587 31.1305 22.4368 31.1019 22.4088C31.0733 22.3809 31.0509 22.3475 31.0359 22.3107C31.021 22.2739 31.014 22.2345 31.0153 22.195C31.0152 22.0209 31.1472 21.8961 31.3205 21.8961V21.8968Z" fill="#CC886A"/>
</svg>
