<svg id="shop" viewBox="0 0 46 46" fill="none" xmlns="http://www.w3.org/2000/svg">
<path d="M22.6143 0.976562C10.1934 0.976562 0.114258 11.0557 0.114258 23.4766C0.114258 35.8974 10.1934 45.9766 22.6143 45.9766C35.0351 45.9766 45.1143 35.8974 45.1143 23.4766C45.1143 11.0557 35.0351 0.976562 22.6143 0.976562ZM22.6143 1.91406C34.5285 1.91406 44.1768 11.5623 44.1768 23.4766C44.1768 35.3908 34.5285 45.0391 22.6143 45.0391C10.7001 45.0391 1.05176 35.3908 1.05176 23.4766C1.05176 11.5623 10.7001 1.91406 22.6143 1.91406Z" fill="#CC886A"/>
<path d="M15.3955 13.8516C14.83 13.8516 14.3643 14.3173 14.3643 14.8828V15.5937C14.3642 16.0047 14.3104 16.4138 14.2044 16.8109L13.1718 20.6836C13.0505 21.1385 12.9892 21.6074 12.9893 22.0782V22.9609C12.9895 23.4299 13.1177 23.89 13.36 24.2916C13.6023 24.6932 13.9495 25.0211 14.3643 25.24V32.0703C14.3643 32.6358 14.83 33.1016 15.3955 33.1016H29.833C30.3985 33.1016 30.8643 32.6358 30.8643 32.0703V25.24C31.279 25.0211 31.6262 24.6932 31.8684 24.2917C32.1107 23.8902 32.2389 23.4302 32.2393 22.9613V22.0785C32.2393 21.6076 32.1781 21.1391 32.0567 20.6839L31.0241 16.8112C30.9181 16.4143 30.8644 16.0052 30.8643 15.5944V14.8828C30.8643 14.3173 30.3985 13.8516 29.833 13.8516H15.3955ZM15.3955 14.5391H29.833C30.0269 14.5391 30.1768 14.6889 30.1768 14.8828V15.5937C30.1768 15.7009 30.1802 15.8075 30.1871 15.9141H15.0414C15.048 15.8075 15.0518 15.7009 15.0518 15.5937V14.8828C15.0518 14.6889 15.2013 14.5391 15.3955 14.5391ZM14.9565 16.6016H30.2723C30.2967 16.7312 30.3253 16.8604 30.3596 16.9883L31.3923 20.861C31.4105 20.9304 31.4259 21.0005 31.4411 21.0707H13.7878C13.8033 21.0005 13.8184 20.9304 13.8369 20.861L14.8696 16.9883C14.9036 16.8604 14.9321 16.7312 14.9565 16.6016ZM13.6881 21.7578H31.5404C31.5476 21.8644 31.5518 21.9709 31.5518 22.0782V22.9609C31.5518 24.0142 30.7147 24.8516 29.6611 24.8516C28.6075 24.8516 27.7705 24.0142 27.7705 22.9609V22.7891C27.7705 22.6979 27.7343 22.6105 27.6698 22.546C27.6054 22.4815 27.5179 22.4453 27.4268 22.4453C27.3356 22.4453 27.2482 22.4815 27.1837 22.546C27.1192 22.6105 27.083 22.6979 27.083 22.7891C27.083 23.9375 26.1693 24.8516 25.0205 24.8516C23.8717 24.8516 22.958 23.9375 22.958 22.7891C22.958 22.6979 22.9218 22.6105 22.8573 22.546C22.7929 22.4815 22.7054 22.4453 22.6143 22.4453C22.5231 22.4453 22.4357 22.4815 22.3712 22.546C22.3067 22.6105 22.2705 22.6979 22.2705 22.7891C22.2705 23.9375 21.3568 24.8516 20.208 24.8516C19.0592 24.8516 18.1455 23.9375 18.1455 22.7891C18.1455 22.6979 18.1093 22.6105 18.0448 22.546C17.9804 22.4815 17.8929 22.4453 17.8018 22.4453C17.7106 22.4453 17.6232 22.4815 17.5587 22.546C17.4942 22.6105 17.458 22.6979 17.458 22.7891V22.9609C17.458 24.0142 16.621 24.8516 15.5674 24.8516C14.5138 24.8516 13.6768 24.0142 13.6768 22.9609V22.0782C13.6768 21.9709 13.6809 21.8644 13.6884 21.7578H13.6881ZM22.6143 24.0486C23.0749 24.9231 23.9645 25.5391 25.0205 25.5391C26.0497 25.5391 26.9139 24.9485 27.3855 24.1104C27.8107 24.9478 28.6577 25.5391 29.6611 25.5391C29.8343 25.5392 30.007 25.5219 30.1768 25.4875V32.0703C30.1768 32.2642 30.0269 32.4141 29.833 32.4141H21.9268V29.6641C21.9268 28.1464 20.6944 26.9141 19.1768 26.9141C17.6591 26.9141 16.4268 28.1464 16.4268 29.6641V32.4141H15.3955C15.2016 32.4141 15.0518 32.2642 15.0518 32.0703V25.4875C15.2185 25.5212 15.3907 25.5391 15.5674 25.5391C16.5704 25.5391 17.4174 24.9482 17.8434 24.1104C18.315 24.9485 19.1788 25.5391 20.2084 25.5391C21.264 25.5391 22.1536 24.9231 22.6146 24.0486H22.6143ZM19.1768 27.6016C20.3252 27.6016 21.2393 28.5156 21.2393 29.6641V32.4141H17.1143V29.6641C17.1143 28.5156 18.0283 27.6016 19.1768 27.6016Z" fill="#CC886A"/>
</svg>
