<svg width="36" height="36" viewBox="0 0 36 36" fill="none" xmlns="http://www.w3.org/2000/svg">
<g clip-path="url(#clip0_115_503)">
<rect width="36.1381" height="36.1381" fill="#B24D2B"/>
<g clip-path="url(#clip1_115_503)">
<path fill-rule="evenodd" clip-rule="evenodd" d="M12.5083 7.93903C12.3878 7.94046 12.2687 7.96573 12.158 8.01341C12.0472 8.06108 11.947 8.13021 11.8632 8.2168C11.7793 8.30339 11.7134 8.40573 11.6693 8.51792C11.6252 8.63011 11.6037 8.74992 11.6061 8.87045V9.77995H8.86847C8.74794 9.77947 8.62851 9.80285 8.51706 9.84875C8.40561 9.89466 8.30435 9.96217 8.21912 10.0474C8.13389 10.1326 8.06637 10.2339 8.02047 10.3453C7.97457 10.4568 7.95118 10.5762 7.95167 10.6968V27.1317C7.95118 27.2522 7.97457 27.3716 8.02047 27.4831C8.06637 27.5945 8.13389 27.6958 8.21912 27.781C8.30435 27.8663 8.40561 27.9338 8.51706 27.9797C8.62851 28.0256 8.74794 28.049 8.86847 28.0485H27.1297C27.2502 28.049 27.3697 28.0256 27.4811 27.9797C27.5926 27.9338 27.6938 27.8663 27.7791 27.781C27.8643 27.6958 27.9318 27.5945 27.9777 27.4831C28.0236 27.3716 28.047 27.2522 28.0465 27.1317V10.6968C28.047 10.5762 28.0236 10.4568 27.9777 10.3453C27.9318 10.2339 27.8643 10.1326 27.7791 10.0474C27.6938 9.96217 27.5926 9.89466 27.4811 9.84875C27.3697 9.80285 27.2502 9.77947 27.1297 9.77995H24.3939V8.87045C24.3939 8.62802 24.2976 8.39553 24.1262 8.22411C23.9548 8.05269 23.7223 7.95638 23.4798 7.95638C23.2374 7.95638 23.0049 8.05269 22.8335 8.22411C22.6621 8.39553 22.5658 8.62802 22.5658 8.87045V9.77995H18.9132V8.87045C18.9132 8.62802 18.8168 8.39553 18.6454 8.22411C18.474 8.05269 18.2415 7.95638 17.9991 7.95638C17.7567 7.95638 17.5242 8.05269 17.3527 8.22411C17.1813 8.39553 17.085 8.62802 17.085 8.87045V9.77995H13.4324V8.87045C13.4349 8.74808 13.4127 8.62646 13.3672 8.51282C13.3217 8.39919 13.2539 8.29586 13.1677 8.20897C13.0815 8.12208 12.9787 8.05341 12.8654 8.00704C12.7521 7.96067 12.6307 7.93754 12.5083 7.93903V7.93903ZM9.77797 11.6081H11.6061V12.5249C11.5787 13.7695 13.4598 13.7695 13.4324 12.5249V11.6081H17.085V12.5249C17.085 13.7439 18.9132 13.7439 18.9132 12.5249V11.6081H22.5658V12.5249C22.5658 13.7439 24.3939 13.7439 24.3939 12.5249V11.6081H26.2202V15.2607H9.77797V11.6081ZM9.77797 17.087H26.2202V26.2222H9.77797V17.087ZM16.1737 18.9133C15.9315 18.9133 15.6992 19.0095 15.528 19.1808C15.3567 19.352 15.2605 19.5843 15.2605 19.8265C15.2605 20.0686 15.3567 20.3009 15.528 20.4722C15.6992 20.6434 15.9315 20.7396 16.1737 20.7396C16.4159 20.7396 16.6481 20.6434 16.8194 20.4722C16.9906 20.3009 17.0868 20.0686 17.0868 19.8265C17.0868 19.5843 16.9906 19.352 16.8194 19.1808C16.6481 19.0095 16.4159 18.9133 16.1737 18.9133ZM19.8263 18.9133C19.5841 18.9133 19.3519 19.0095 19.1806 19.1808C19.0094 19.352 18.9132 19.5843 18.9132 19.8265C18.9132 20.0686 19.0094 20.3009 19.1806 20.4722C19.3519 20.6434 19.5841 20.7396 19.8263 20.7396C20.0685 20.7396 20.3008 20.6434 20.472 20.4722C20.6433 20.3009 20.7395 20.0686 20.7395 19.8265C20.7395 19.5843 20.6433 19.352 20.472 19.1808C20.3008 19.0095 20.0685 18.9133 19.8263 18.9133ZM23.4789 18.9133C23.2367 18.9133 23.0045 19.0095 22.8332 19.1808C22.662 19.352 22.5658 19.5843 22.5658 19.8265C22.5658 20.0686 22.662 20.3009 22.8332 20.4722C23.0045 20.6434 23.2367 20.7396 23.4789 20.7396C23.7211 20.7396 23.9534 20.6434 24.1246 20.4722C24.2959 20.3009 24.3921 20.0686 24.3921 19.8265C24.3921 19.5843 24.2959 19.352 24.1246 19.1808C23.9534 19.0095 23.7211 18.9133 23.4789 18.9133ZM12.5211 22.5659C12.2789 22.5659 12.0466 22.6621 11.8754 22.8334C11.7041 23.0046 11.6079 23.2369 11.6079 23.4791C11.6079 23.7213 11.7041 23.9535 11.8754 24.1248C12.0466 24.296 12.2789 24.3922 12.5211 24.3922C12.7633 24.3922 12.9955 24.296 13.1668 24.1248C13.338 23.9535 13.4342 23.7213 13.4342 23.4791C13.4342 23.2369 13.338 23.0046 13.1668 22.8334C12.9955 22.6621 12.7633 22.5659 12.5211 22.5659ZM16.1737 22.5659C15.9315 22.5659 15.6992 22.6621 15.528 22.8334C15.3567 23.0046 15.2605 23.2369 15.2605 23.4791C15.2605 23.7213 15.3567 23.9535 15.528 24.1248C15.6992 24.296 15.9315 24.3922 16.1737 24.3922C16.4159 24.3922 16.6481 24.296 16.8194 24.1248C16.9906 23.9535 17.0868 23.7213 17.0868 23.4791C17.0868 23.2369 16.9906 23.0046 16.8194 22.8334C16.6481 22.6621 16.4159 22.5659 16.1737 22.5659ZM19.8263 22.5659C19.5841 22.5659 19.3519 22.6621 19.1806 22.8334C19.0094 23.0046 18.9132 23.2369 18.9132 23.4791C18.9132 23.7213 19.0094 23.9535 19.1806 24.1248C19.3519 24.296 19.5841 24.3922 19.8263 24.3922C20.0685 24.3922 20.3008 24.296 20.472 24.1248C20.6433 23.9535 20.7395 23.7213 20.7395 23.4791C20.7395 23.2369 20.6433 23.0046 20.472 22.8334C20.3008 22.6621 20.0685 22.5659 19.8263 22.5659Z" fill="white"/>
</g>
</g>
<defs>
<clipPath id="clip0_115_503">
<rect width="36" height="36" fill="white"/>
</clipPath>
<clipPath id="clip1_115_503">
<rect width="21.9159" height="21.9159" fill="white" transform="translate(7.04199 7.04202)"/>
</clipPath>
</defs>
</svg>
