<svg width="25" height="26" viewBox="0 0 25 26" fill="none" xmlns="http://www.w3.org/2000/svg">
<g clip-path="url(#clip0_1_326)">
<path d="M25 13.0381C25 6.13453 19.4036 0.538086 12.5 0.538086C5.59644 0.538086 0 6.13453 0 13.0381C0 19.2772 4.57107 24.4485 10.5469 25.3862V16.6514H7.37305V13.0381H10.5469V10.2842C10.5469 7.15136 12.4131 5.4209 15.2683 5.4209C16.6359 5.4209 18.0664 5.66504 18.0664 5.66504V8.74121H16.4902C14.9374 8.74121 14.4531 9.70475 14.4531 10.6933V13.0381H17.9199L17.3657 16.6514H14.4531V25.3862C20.4289 24.4485 25 19.2772 25 13.0381Z" fill="#222A31"/>
<path d="M17.3638 16.6514L17.918 13.0381H14.4512V10.6933C14.4512 9.70475 14.9354 8.74121 16.4882 8.74121H18.0645V5.66504C18.0645 5.66504 16.634 5.4209 15.2663 5.4209C12.4111 5.4209 10.5449 7.15136 10.5449 10.2842V13.0381H7.37109V16.6514H10.5449V25.3862C11.8391 25.5887 13.157 25.5887 14.4512 25.3862V16.6514H17.3638Z" fill="#F7F7F7"/>
</g>
<defs>
<clipPath id="clip0_1_326">
<rect width="25" height="25" fill="white" transform="translate(0 0.538086)"/>
</clipPath>
</defs>
</svg>
