<svg width="36" height="36" viewBox="0 0 36 36" fill="none" xmlns="http://www.w3.org/2000/svg">
<g clip-path="url(#clip0_114_454)">
<path d="M35.8213 18.252C35.8213 8.58697 27.9863 0.751953 18.3213 0.751953C8.65631 0.751953 0.821289 8.58697 0.821289 18.252C0.821289 26.9867 7.22079 34.2265 15.5869 35.5393V23.3105H11.1436V18.252H15.5869V14.3965C15.5869 10.0105 18.1996 7.58789 22.1969 7.58789C24.1116 7.58789 26.1143 7.92969 26.1143 7.92969V12.2363H23.9075C21.7336 12.2363 21.0557 13.5853 21.0557 14.9692V18.252H25.9092L25.1333 23.3105H21.0557V35.5393C29.4218 34.2265 35.8213 26.9867 35.8213 18.252Z" fill="#B24D2B"/>
<path d="M25.1304 23.3105L25.9062 18.252H21.0527V14.9692C21.0527 13.5853 21.7307 12.2363 23.9046 12.2363H26.1113V7.92969C26.1113 7.92969 24.1087 7.58789 22.194 7.58789C18.1966 7.58789 15.584 10.0105 15.584 14.3965V18.252H11.1406V23.3105H15.584V35.5393C17.3959 35.8228 19.2408 35.8228 21.0527 35.5393V23.3105H25.1304Z" fill="#F7F7F7"/>
</g>
<defs>
<clipPath id="clip0_114_454">
<rect width="35" height="35" fill="white" transform="translate(0.821289 0.751953)"/>
</clipPath>
</defs>
</svg>
