<svg width="26" height="26" viewBox="0 0 26 26" fill="none" xmlns="http://www.w3.org/2000/svg">
<g clip-path="url(#clip0_114_480)">
<path d="M25.5439 13.2354C25.5439 6.33179 19.9475 0.735352 13.0439 0.735352C6.14039 0.735352 0.543945 6.33179 0.543945 13.2354C0.543945 19.4745 5.11501 24.6458 11.0908 25.5834V16.8486H7.91699V13.2354H11.0908V10.4814C11.0908 7.34863 12.957 5.61816 15.8122 5.61816C17.1799 5.61816 18.6104 5.8623 18.6104 5.8623V8.93848H17.0341C15.4813 8.93848 14.9971 9.90202 14.9971 10.8906V13.2354H18.4639L17.9097 16.8486H14.9971V25.5834C20.9729 24.6458 25.5439 19.4745 25.5439 13.2354Z" fill="#565C65"/>
<path d="M17.9077 16.8486L18.4619 13.2354H14.9951V10.8906C14.9951 9.90202 15.4794 8.93848 17.0322 8.93848H18.6084V5.8623C18.6084 5.8623 17.1779 5.61816 15.8103 5.61816C12.955 5.61816 11.0889 7.34863 11.0889 10.4814V13.2354H7.91504V16.8486H11.0889V25.5834C12.3831 25.786 13.7009 25.786 14.9951 25.5834V16.8486H17.9077Z" fill="#F7F7F7"/>
</g>
<defs>
<clipPath id="clip0_114_480">
<rect width="25" height="25" fill="white" transform="translate(0.543945 0.735352)"/>
</clipPath>
</defs>
</svg>
