<svg id="email" width="18" height="18" viewBox="0 0 18 18" fill="none" xmlns="http://www.w3.org/2000/svg">
<path d="M9.00027 8.33063L16.189 3.7125C15.9 3.49572 15.549 3.37742 15.1878 3.375H2.81277C2.4515 3.37742 2.10054 3.49572 1.81152 3.7125L9.00027 8.33063Z" fill="#CFCFCF"/>
<path d="M9.30375 9.47249L9.20813 9.51749H9.16313C9.11133 9.54063 9.05633 9.5558 9 9.56249C8.95331 9.56837 8.90607 9.56837 8.85938 9.56249H8.81437L8.71875 9.51749L1.18125 4.64624C1.14524 4.78211 1.12634 4.92194 1.125 5.06249V12.9375C1.125 13.385 1.30279 13.8143 1.61926 14.1307C1.93572 14.4472 2.36495 14.625 2.8125 14.625H15.1875C15.6351 14.625 16.0643 14.4472 16.3807 14.1307C16.6972 13.8143 16.875 13.385 16.875 12.9375V5.06249C16.8737 4.92194 16.8548 4.78211 16.8187 4.64624L9.30375 9.47249Z" fill="#CFCFCF"/>
</svg>
