<svg id="geo" viewBox="0 0 36 36" fill="none" xmlns="http://www.w3.org/2000/svg">
<circle cx="17.5526" cy="17.9388" r="17.0526" stroke="#B24D2B"/>
<path d="M17.5516 9.91626C21.0829 9.91626 23.94 12.7577 23.94 16.2875C23.94 17.8831 23.3464 19.3314 22.3773 20.4524C22.1243 20.7777 22.3773 20.4524 22.1243 20.7777L18.8922 24.4383C18.6341 24.7671 18.8922 24.4383 18.6341 24.7671L17.5705 25.9614L16.5224 24.7688L16.2677 24.4383L13.1302 20.893C13.1219 20.884 13.1134 20.8754 13.1044 20.8672C13.0888 20.8522 13.0678 20.8291 13.039 20.8001C11.883 19.6436 11.1631 18.0518 11.1631 16.2875C11.1631 12.7576 14.0202 9.91626 17.5516 9.91626ZM17.5533 13.1845C15.8425 13.1845 14.4469 14.5801 14.4469 16.291C14.4469 18.0018 15.8425 19.3992 17.5533 19.3992C19.2642 19.3992 20.6615 18.0018 20.6615 16.291C20.6615 14.5801 19.2642 13.1845 17.5533 13.1845ZM17.5533 14.0657C18.7879 14.0657 19.7803 15.0563 19.7803 16.291C19.7803 17.5256 18.7879 18.518 17.5533 18.518C16.3187 18.518 15.328 17.5256 15.328 16.291C15.328 15.0563 16.3187 14.0657 17.5533 14.0657Z" fill="#B24D2B"/>
</svg>
