<svg width="36" height="36" viewBox="0 0 36 36" fill="none" xmlns="http://www.w3.org/2000/svg">
<g clip-path="url(#clip0_115_502)">
<rect width="36" height="36" fill="#B24D2B"/>
<path d="M25.2067 12.1133C25.4938 12.0272 25.6948 11.7688 25.6948 11.4529V9.01235C25.6948 8.63908 25.3789 8.32324 25.0057 8.32324H10.9938C10.6205 8.32324 10.3047 8.63908 10.3047 9.01235V11.4529C10.3047 11.7688 10.5057 12.0272 10.7928 12.1133C11.0225 14.7262 12.6591 16.9371 14.9275 17.9995C12.6591 19.0619 11.0225 21.2727 10.7928 23.8856C10.5057 23.9718 10.3047 24.2302 10.3047 24.546V26.9866C10.3047 27.3599 10.6205 27.6757 10.9938 27.6757H25.0057C25.3789 27.6757 25.6948 27.3599 25.6948 26.9866V24.546C25.6948 24.2302 25.4938 23.9718 25.2067 23.8856C24.977 21.2727 23.3403 19.0619 21.072 17.9995C23.3403 16.9371 24.977 14.7262 25.2067 12.1133V12.1133ZM11.6829 9.70146H24.3166V10.7638H11.6829V9.70146V9.70146ZM24.3166 26.2975H11.6829V25.2351H24.3166V26.2975ZM23.8285 23.8569H12.171C12.5156 20.9569 14.9849 18.6886 17.9997 18.6886C21.0146 18.6886 23.4839 20.9569 23.8285 23.8569ZM17.9997 17.3104C14.9849 17.3104 12.5156 15.0421 12.171 12.1421H23.8285C23.4839 15.0421 21.0146 17.3104 17.9997 17.3104Z" fill="white"/>
</g>
<defs>
<clipPath id="clip0_115_502">
<rect width="36" height="36" fill="white"/>
</clipPath>
</defs>
</svg>
