<svg width="22" height="22" viewBox="0 0 22 22" fill="none" xmlns="http://www.w3.org/2000/svg">
<path d="M11.3254 21.5476C5.4296 21.5476 0.650391 16.7684 0.650391 10.8726C0.650391 4.97672 5.4296 0.19751 11.3254 0.19751C17.2213 0.19751 22.0005 4.97672 22.0005 10.8726C22.0005 16.7684 17.2213 21.5476 11.3254 21.5476ZM11.3254 1.35881C6.09958 1.35881 1.81169 5.6467 1.81169 10.8726C1.81169 16.0984 6.09958 20.3863 11.3254 20.3863C16.5513 20.3863 20.8392 16.0984 20.8392 10.8726C20.8392 5.6467 16.5513 1.35881 11.3254 1.35881Z" fill="white"/>
<path d="M10.7002 15.2948H11.9508V16.5455H10.7002V15.2948ZM11.6828 14.0442H10.9682L10.7002 8.99701V5.20044H11.9508V8.99701L11.6828 14.0442Z" fill="white"/>
</svg>
