<svg id="instagram" width="26" height="26" viewBox="0 0 26 26" fill="none" xmlns="http://www.w3.org/2000/svg">
<circle cx="13.1523" cy="12.9619" r="12.5" fill="#222A31"/>
<g clip-path="url(#clip0_114_445)">
<path fill-rule="evenodd" clip-rule="evenodd" d="M17.7501 12.4593H16.7072C16.7832 12.7543 16.828 13.0625 16.828 13.3811C16.828 15.4171 15.1779 17.0673 13.1422 17.0673C11.1066 17.0673 9.45633 15.4171 9.45633 13.3811C9.45633 13.0625 9.50142 12.7543 9.57741 12.4593H8.53442V17.528C8.53442 17.7821 8.74079 17.9884 8.99564 17.9884H17.2888C17.3493 17.9884 17.4093 17.9766 17.4652 17.9534C17.5211 17.9303 17.572 17.8964 17.6148 17.8537C17.6576 17.8109 17.6916 17.7602 17.7148 17.7043C17.738 17.6484 17.75 17.5885 17.7501 17.528V12.4593ZM17.7501 9.23426C17.75 9.17373 17.7381 9.11379 17.7149 9.05787C17.6917 9.00196 17.6577 8.95116 17.6149 8.90838C17.572 8.8656 17.5212 8.83167 17.4653 8.80854C17.4093 8.78541 17.3494 8.77353 17.2888 8.77357H15.9069C15.7847 8.77357 15.6675 8.8221 15.5811 8.9085C15.4947 8.99489 15.4461 9.11207 15.4461 9.23426V10.6168C15.4461 10.6773 15.458 10.7372 15.4811 10.7931C15.5043 10.849 15.5382 10.8998 15.581 10.9426C15.6238 10.9853 15.6746 11.0193 15.7305 11.0424C15.7864 11.0656 15.8464 11.0775 15.9069 11.0775H17.2888C17.3494 11.0775 17.4093 11.0656 17.4653 11.0425C17.5212 11.0194 17.572 10.9854 17.6149 10.9426C17.6577 10.8999 17.6917 10.8491 17.7149 10.7932C17.7381 10.7372 17.75 10.6773 17.7501 10.6168V9.23426ZM13.1421 11.0775C11.8696 11.0775 10.8383 12.1087 10.8383 13.3811C10.8383 14.6533 11.8696 15.6851 13.1421 15.6851C14.4145 15.6851 15.4461 14.6533 15.4461 13.3811C15.4461 12.1087 14.4145 11.0775 13.1421 11.0775ZM17.7501 19.3711H8.53431C7.77115 19.3711 7.15234 18.7521 7.15234 17.9883V8.77357C7.15234 8.0103 7.77115 7.3916 8.53431 7.3916H17.7501C18.5133 7.3916 19.132 8.0103 19.132 8.77357V17.9883C19.1319 18.7521 18.5133 19.3711 17.7501 19.3711Z" fill="#F7F7F7"/>
</g>
<defs>
<clipPath id="clip0_114_445">
<rect width="12" height="12" fill="white" transform="translate(7.15234 7.3916)"/>
</clipPath>
</defs>
</svg>

<svg id="instagram-accent" width="36" height="36" viewBox="0 0 36 36" fill="none" xmlns="http://www.w3.org/2000/svg">
<circle cx="17.6963" cy="18.252" r="17.5" fill="#B24D2B"/>
<g clip-path="url(#clip0_114_453)">
<path fill-rule="evenodd" clip-rule="evenodd" d="M24.1327 17.5489H22.6727C22.779 17.9618 22.8419 18.3933 22.8419 18.8394C22.8419 21.6899 20.5317 24.0001 17.6817 24.0001C14.8318 24.0001 12.5215 21.6899 12.5215 18.8394C12.5215 18.3933 12.5846 17.9618 12.691 17.5489H11.2308V24.645C11.2308 25.0008 11.5197 25.2896 11.8765 25.2896H23.487C23.5717 25.2896 23.6556 25.273 23.7339 25.2407C23.8122 25.2083 23.8834 25.1609 23.9433 25.101C24.0033 25.0412 24.0509 24.9701 24.0834 24.8919C24.1159 24.8136 24.1326 24.7298 24.1327 24.645V17.5489ZM24.1327 13.0338C24.1327 12.9491 24.1159 12.8652 24.0834 12.7869C24.051 12.7086 24.0034 12.6375 23.9434 12.5776C23.8835 12.5177 23.8123 12.4702 23.734 12.4378C23.6557 12.4054 23.5717 12.3888 23.487 12.3889H21.5522C21.3812 12.3889 21.2171 12.4568 21.0961 12.5778C20.9751 12.6987 20.9071 12.8628 20.9071 13.0338V14.9693C20.9071 15.054 20.9238 15.1379 20.9562 15.2162C20.9886 15.2944 21.0362 15.3655 21.0961 15.4254C21.156 15.4853 21.2271 15.5328 21.3054 15.5652C21.3836 15.5976 21.4675 15.6143 21.5522 15.6143H23.487C23.5717 15.6144 23.6557 15.5977 23.734 15.5653C23.8123 15.5329 23.8835 15.4855 23.9434 15.4256C24.0034 15.3657 24.051 15.2946 24.0834 15.2163C24.1159 15.138 24.1327 15.0541 24.1327 14.9693V13.0338ZM17.6815 15.6143C15.9001 15.6143 14.4562 17.058 14.4562 18.8394C14.4562 20.6205 15.9001 22.065 17.6815 22.065C19.4629 22.065 20.9071 20.6205 20.9071 18.8394C20.9071 17.058 19.4629 15.6143 17.6815 15.6143ZM24.1327 27.2254H11.2307C10.1622 27.2254 9.2959 26.3587 9.2959 25.2894V12.3889C9.2959 11.3203 10.1622 10.4541 11.2307 10.4541H24.1327C25.2013 10.4541 26.0675 11.3203 26.0675 12.3889V25.2894C26.0673 26.3587 25.2013 27.2254 24.1327 27.2254Z" fill="#F7F7F7"/>
</g>
<defs>
<clipPath id="clip0_114_453">
<rect width="16.8" height="16.8" fill="white" transform="translate(9.2959 10.4541)"/>
</clipPath>
</defs>
</svg>
<svg id="instagram-footer" width="26" height="26" viewBox="0 0 26 26" fill="none" xmlns="http://www.w3.org/2000/svg">
<circle cx="12.6963" cy="13.1597" r="12.5" fill="#565C65"/>
<g clip-path="url(#clip0_114_486)">
<path fill-rule="evenodd" clip-rule="evenodd" d="M17.294 12.6571H16.2511C16.3271 12.952 16.372 13.2602 16.372 13.5789C16.372 15.6149 14.7218 17.265 12.6861 17.265C10.6505 17.265 9.00028 15.6149 9.00028 13.5789C9.00028 13.2602 9.04536 12.952 9.12135 12.6571H8.07836V17.7257C8.07836 17.9798 8.28474 18.1861 8.53959 18.1861H16.8328C16.8933 18.1862 16.9532 18.1743 17.0092 18.1512C17.0651 18.1281 17.1159 18.0942 17.1587 18.0514C17.2016 18.0087 17.2356 17.9579 17.2588 17.902C17.282 17.8462 17.2939 17.7863 17.294 17.7257V12.6571ZM17.294 9.43202C17.294 9.37148 17.282 9.31154 17.2588 9.25563C17.2356 9.19971 17.2016 9.14891 17.1588 9.10613C17.116 9.06335 17.0652 9.02943 17.0092 9.0063C16.9533 8.98317 16.8933 8.97128 16.8328 8.97132H15.4508C15.3286 8.97132 15.2114 9.01986 15.125 9.10625C15.0386 9.19265 14.99 9.30982 14.99 9.43202V10.8145C14.99 10.875 15.0019 10.9349 15.0251 10.9908C15.0482 11.0467 15.0822 11.0975 15.125 11.1403C15.1678 11.1831 15.2186 11.217 15.2745 11.2402C15.3304 11.2633 15.3903 11.2752 15.4508 11.2752H16.8328C16.8933 11.2752 16.9533 11.2634 17.0092 11.2402C17.0652 11.2171 17.116 11.1832 17.1588 11.1404C17.2016 11.0976 17.2356 11.0468 17.2588 10.9909C17.282 10.935 17.294 10.8751 17.294 10.8145V9.43202ZM12.686 11.2752C11.4136 11.2752 10.3822 12.3064 10.3822 13.5789C10.3822 14.8511 11.4136 15.8829 12.686 15.8829C13.9585 15.8829 14.99 14.8511 14.99 13.5789C14.99 12.3064 13.9585 11.2752 12.686 11.2752V11.2752ZM17.294 19.5688H8.07826C7.3151 19.5688 6.69629 18.9498 6.69629 18.186V8.97132C6.69629 8.20806 7.3151 7.58936 8.07826 7.58936H17.294C18.0573 7.58936 18.676 8.20806 18.676 8.97132V18.186C18.6759 18.9498 18.0573 19.5688 17.294 19.5688" fill="#F7F7F7"/>
</g>
<defs>
<clipPath id="clip0_114_486">
<rect width="12" height="12" fill="white" transform="translate(6.69629 7.58936)"/>
</clipPath>
</defs>
</svg>
