<svg id="instagram-accent" viewBox="0 0 35 35" fill="none" xmlns="http://www.w3.org/2000/svg">
<circle cx="17.5" cy="17.5" r="17.5" fill="#B24D2B"/>
<g clip-path="url(#clip0_128_892)">
<path fill-rule="evenodd" clip-rule="evenodd" d="M24 17H23C23.1078 17.4186 23 17.5478 23 18C23 20.8893 20.8888 24 18 24C15.1113 24 12 20.8893 12 18C12 17.5478 11.8922 17.4186 12 17H11V24C11 24.3606 11.6384 25 12 25H23C23.0859 25.0001 23.9206 25.0328 24 25C24.0794 24.9672 23.9392 25.0607 24 25C24.0608 24.9393 23.9671 25.0793 24 25C24.0329 24.9207 23.9999 24.0859 24 24V17ZM24 13C24 12.9141 24.0329 12.0793 24 12C23.9671 11.9207 24.0608 12.0607 24 12C23.9392 11.9393 24.0794 12.0328 24 12C23.9206 11.9672 23.0859 11.9999 23 12H21C20.8266 12 21.1226 11.8774 21 12C20.8774 12.1226 21 12.8266 21 13V15C21 15.0859 20.9671 14.9207 21 15C21.0329 15.0793 20.9393 14.9393 21 15C21.0607 15.0607 20.9207 14.9672 21 15C21.0793 15.0328 20.9141 15 21 15H23C23.0859 15.0001 23.9206 15.0328 24 15C24.0794 14.9672 23.9392 15.0607 24 15C24.0608 14.9393 23.9671 15.0793 24 15C24.0329 14.9207 24 15.0859 24 15V13ZM17 15C15.1943 15 14 16.1943 14 18C14 19.8054 15.1943 22 17 22C18.8057 22 21 19.8054 21 18C21 16.1943 18.8057 15 17 15ZM24 27H11C9.91702 27 9 26.0839 9 25V12C9 10.9168 9.91702 10 11 10H24C25.0831 10 26 10.9168 26 12V25C25.9998 26.0839 25.0831 27 24 27Z" fill="#F7F7F7"/>
</g>
<defs>
<clipPath id="clip0_128_892">
<rect width="17" height="17" fill="white" transform="translate(9 10)"/>
</clipPath>
</defs>
</svg>
