<svg id="instagram" width="25" height="25" viewBox="0 0 25 25" fill="none" xmlns="http://www.w3.org/2000/svg">
<circle cx="12.5" cy="12.5" r="12.5" fill="#222A31"/>
<g clip-path="url(#clip0_128_893)">
<path fill-rule="evenodd" clip-rule="evenodd" d="M17 12H16C16.0761 12.2955 16 12.6808 16 13C16 15.0395 14.0392 17 12 17C9.96095 17 8 15.0395 8 13C8 12.6808 7.92388 12.2955 8 12H7V17C7 17.2545 7.74472 18 8 18H16C16.0606 18.0001 15.944 18.0231 16 18C16.056 17.9769 15.9571 17.0428 16 17C16.0429 16.9572 16.9768 17.056 17 17C17.0232 16.944 16.9999 17.0606 17 17V12ZM17 9C17 8.93936 17.0232 9.05601 17 9C16.9768 8.94399 16.0429 9.04285 16 9C15.9571 8.95715 16.056 8.02317 16 8C15.944 7.97683 16.0606 7.99996 16 8H15C14.8776 8 14.0866 8.91346 14 9C13.9134 9.08654 14 8.8776 14 9V10C14 10.0606 13.9768 9.944 14 10C14.0232 10.056 13.9571 10.9571 14 11C14.0429 11.0429 14.944 10.9768 15 11C15.056 11.0232 14.9394 11 15 11H16C16.0606 11 15.944 11.0232 16 11C16.056 10.9768 15.9571 11.0429 16 11C16.0429 10.9571 16.9768 10.056 17 10C17.0232 9.94399 17 10.0606 17 10V9ZM12 11C10.7254 11 10 11.7254 10 13C10 14.2744 10.7254 15 12 15C13.2746 15 14 14.2744 14 13C14 11.7254 13.2746 11 12 11ZM17 19H7C6.23554 19 6 18.7651 6 18V8C6 7.23542 6.23554 7 7 7H17C17.7646 7 18 7.23542 18 8V18C17.9999 18.7651 17.7646 19 17 19Z" fill="#F7F7F7"/>
</g>
<defs>
<clipPath id="clip0_128_893">
<rect width="12" height="12" fill="white" transform="translate(6 7)"/>
</clipPath>
</defs>
</svg>

<svg id="instagram-accent" width="35" height="35" viewBox="0 0 35 35" fill="none" xmlns="http://www.w3.org/2000/svg">
<circle cx="17.5" cy="17.5" r="17.5" fill="#B24D2B"/>
<g clip-path="url(#clip0_128_892)">
<path fill-rule="evenodd" clip-rule="evenodd" d="M24 17H23C23.1078 17.4186 23 17.5478 23 18C23 20.8893 20.8888 24 18 24C15.1113 24 12 20.8893 12 18C12 17.5478 11.8922 17.4186 12 17H11V24C11 24.3606 11.6384 25 12 25H23C23.0859 25.0001 23.9206 25.0328 24 25C24.0794 24.9672 23.9392 25.0607 24 25C24.0608 24.9393 23.9671 25.0793 24 25C24.0329 24.9207 23.9999 24.0859 24 24V17ZM24 13C24 12.9141 24.0329 12.0793 24 12C23.9671 11.9207 24.0608 12.0607 24 12C23.9392 11.9393 24.0794 12.0328 24 12C23.9206 11.9672 23.0859 11.9999 23 12H21C20.8266 12 21.1226 11.8774 21 12C20.8774 12.1226 21 12.8266 21 13V15C21 15.0859 20.9671 14.9207 21 15C21.0329 15.0793 20.9393 14.9393 21 15C21.0607 15.0607 20.9207 14.9672 21 15C21.0793 15.0328 20.9141 15 21 15H23C23.0859 15.0001 23.9206 15.0328 24 15C24.0794 14.9672 23.9392 15.0607 24 15C24.0608 14.9393 23.9671 15.0793 24 15C24.0329 14.9207 24 15.0859 24 15V13ZM17 15C15.1943 15 14 16.1943 14 18C14 19.8054 15.1943 22 17 22C18.8057 22 21 19.8054 21 18C21 16.1943 18.8057 15 17 15ZM24 27H11C9.91702 27 9 26.0839 9 25V12C9 10.9168 9.91702 10 11 10H24C25.0831 10 26 10.9168 26 12V25C25.9998 26.0839 25.0831 27 24 27Z" fill="#F7F7F7"/>
</g>
<defs>
<clipPath id="clip0_128_892">
<rect width="17" height="17" fill="white" transform="translate(9 10)"/>
</clipPath>
</defs>
</svg>
