<svg width="26" height="26" viewBox="0 0 26 26" fill="none" xmlns="http://www.w3.org/2000/svg">
<circle cx="13.1523" cy="12.9619" r="12.5" fill="#222A31"/>
<g clip-path="url(#clip0_114_445)">
<path fill-rule="evenodd" clip-rule="evenodd" d="M17.7501 12.4593H16.7072C16.7832 12.7543 16.828 13.0625 16.828 13.3811C16.828 15.4171 15.1779 17.0673 13.1422 17.0673C11.1066 17.0673 9.45633 15.4171 9.45633 13.3811C9.45633 13.0625 9.50142 12.7543 9.57741 12.4593H8.53442V17.528C8.53442 17.7821 8.74079 17.9884 8.99564 17.9884H17.2888C17.3493 17.9884 17.4093 17.9766 17.4652 17.9534C17.5211 17.9303 17.572 17.8964 17.6148 17.8537C17.6576 17.8109 17.6916 17.7602 17.7148 17.7043C17.738 17.6484 17.75 17.5885 17.7501 17.528V12.4593ZM17.7501 9.23426C17.75 9.17373 17.7381 9.11379 17.7149 9.05787C17.6917 9.00196 17.6577 8.95116 17.6149 8.90838C17.572 8.8656 17.5212 8.83167 17.4653 8.80854C17.4093 8.78541 17.3494 8.77353 17.2888 8.77357H15.9069C15.7847 8.77357 15.6675 8.8221 15.5811 8.9085C15.4947 8.99489 15.4461 9.11207 15.4461 9.23426V10.6168C15.4461 10.6773 15.458 10.7372 15.4811 10.7931C15.5043 10.849 15.5382 10.8998 15.581 10.9426C15.6238 10.9853 15.6746 11.0193 15.7305 11.0424C15.7864 11.0656 15.8464 11.0775 15.9069 11.0775H17.2888C17.3494 11.0775 17.4093 11.0656 17.4653 11.0425C17.5212 11.0194 17.572 10.9854 17.6149 10.9426C17.6577 10.8999 17.6917 10.8491 17.7149 10.7932C17.7381 10.7372 17.75 10.6773 17.7501 10.6168V9.23426ZM13.1421 11.0775C11.8696 11.0775 10.8383 12.1087 10.8383 13.3811C10.8383 14.6533 11.8696 15.6851 13.1421 15.6851C14.4145 15.6851 15.4461 14.6533 15.4461 13.3811C15.4461 12.1087 14.4145 11.0775 13.1421 11.0775ZM17.7501 19.3711H8.53431C7.77115 19.3711 7.15234 18.7521 7.15234 17.9883V8.77357C7.15234 8.0103 7.77115 7.3916 8.53431 7.3916H17.7501C18.5133 7.3916 19.132 8.0103 19.132 8.77357V17.9883C19.1319 18.7521 18.5133 19.3711 17.7501 19.3711Z" fill="#F7F7F7"/>
</g>
<defs>
<clipPath id="clip0_114_445">
<rect width="12" height="12" fill="white" transform="translate(7.15234 7.3916)"/>
</clipPath>
</defs>
</svg>
