<svg id="instagram" viewBox="0 0 25 25" fill="none" xmlns="http://www.w3.org/2000/svg">
<circle cx="12.5" cy="12.5" r="12.5" fill="#222A31"/>
<g clip-path="url(#clip0_128_893)">
<path fill-rule="evenodd" clip-rule="evenodd" d="M17 12H16C16.0761 12.2955 16 12.6808 16 13C16 15.0395 14.0392 17 12 17C9.96095 17 8 15.0395 8 13C8 12.6808 7.92388 12.2955 8 12H7V17C7 17.2545 7.74472 18 8 18H16C16.0606 18.0001 15.944 18.0231 16 18C16.056 17.9769 15.9571 17.0428 16 17C16.0429 16.9572 16.9768 17.056 17 17C17.0232 16.944 16.9999 17.0606 17 17V12ZM17 9C17 8.93936 17.0232 9.05601 17 9C16.9768 8.94399 16.0429 9.04285 16 9C15.9571 8.95715 16.056 8.02317 16 8C15.944 7.97683 16.0606 7.99996 16 8H15C14.8776 8 14.0866 8.91346 14 9C13.9134 9.08654 14 8.8776 14 9V10C14 10.0606 13.9768 9.944 14 10C14.0232 10.056 13.9571 10.9571 14 11C14.0429 11.0429 14.944 10.9768 15 11C15.056 11.0232 14.9394 11 15 11H16C16.0606 11 15.944 11.0232 16 11C16.056 10.9768 15.9571 11.0429 16 11C16.0429 10.9571 16.9768 10.056 17 10C17.0232 9.94399 17 10.0606 17 10V9ZM12 11C10.7254 11 10 11.7254 10 13C10 14.2744 10.7254 15 12 15C13.2746 15 14 14.2744 14 13C14 11.7254 13.2746 11 12 11ZM17 19H7C6.23554 19 6 18.7651 6 18V8C6 7.23542 6.23554 7 7 7H17C17.7646 7 18 7.23542 18 8V18C17.9999 18.7651 17.7646 19 17 19Z" fill="#F7F7F7"/>
</g>
<defs>
<clipPath id="clip0_128_893">
<rect width="12" height="12" fill="white" transform="translate(6 7)"/>
</clipPath>
</defs>
</svg>
