<svg width="36" height="36" viewBox="0 0 36 36" fill="none" xmlns="http://www.w3.org/2000/svg">
<circle cx="17.6963" cy="18.252" r="17.5" fill="#B24D2B"/>
<g clip-path="url(#clip0_114_453)">
<path fill-rule="evenodd" clip-rule="evenodd" d="M24.1327 17.5489H22.6727C22.779 17.9618 22.8419 18.3933 22.8419 18.8394C22.8419 21.6899 20.5317 24.0001 17.6817 24.0001C14.8318 24.0001 12.5215 21.6899 12.5215 18.8394C12.5215 18.3933 12.5846 17.9618 12.691 17.5489H11.2308V24.645C11.2308 25.0008 11.5197 25.2896 11.8765 25.2896H23.487C23.5717 25.2896 23.6556 25.273 23.7339 25.2407C23.8122 25.2083 23.8834 25.1609 23.9433 25.101C24.0033 25.0412 24.0509 24.9701 24.0834 24.8919C24.1159 24.8136 24.1326 24.7298 24.1327 24.645V17.5489ZM24.1327 13.0338C24.1327 12.9491 24.1159 12.8652 24.0834 12.7869C24.051 12.7086 24.0034 12.6375 23.9434 12.5776C23.8835 12.5177 23.8123 12.4702 23.734 12.4378C23.6557 12.4054 23.5717 12.3888 23.487 12.3889H21.5522C21.3812 12.3889 21.2171 12.4568 21.0961 12.5778C20.9751 12.6987 20.9071 12.8628 20.9071 13.0338V14.9693C20.9071 15.054 20.9238 15.1379 20.9562 15.2162C20.9886 15.2944 21.0362 15.3655 21.0961 15.4254C21.156 15.4853 21.2271 15.5328 21.3054 15.5652C21.3836 15.5976 21.4675 15.6143 21.5522 15.6143H23.487C23.5717 15.6144 23.6557 15.5977 23.734 15.5653C23.8123 15.5329 23.8835 15.4855 23.9434 15.4256C24.0034 15.3657 24.051 15.2946 24.0834 15.2163C24.1159 15.138 24.1327 15.0541 24.1327 14.9693V13.0338ZM17.6815 15.6143C15.9001 15.6143 14.4562 17.058 14.4562 18.8394C14.4562 20.6205 15.9001 22.065 17.6815 22.065C19.4629 22.065 20.9071 20.6205 20.9071 18.8394C20.9071 17.058 19.4629 15.6143 17.6815 15.6143ZM24.1327 27.2254H11.2307C10.1622 27.2254 9.2959 26.3587 9.2959 25.2894V12.3889C9.2959 11.3203 10.1622 10.4541 11.2307 10.4541H24.1327C25.2013 10.4541 26.0675 11.3203 26.0675 12.3889V25.2894C26.0673 26.3587 25.2013 27.2254 24.1327 27.2254Z" fill="#F7F7F7"/>
</g>
<defs>
<clipPath id="clip0_114_453">
<rect width="16.8" height="16.8" fill="white" transform="translate(9.2959 10.4541)"/>
</clipPath>
</defs>
</svg>
