<svg id="tel" viewBox="0 0 36 36" fill="none" xmlns="http://www.w3.org/2000/svg">
<circle cx="18.5311" cy="18.3915" r="17.0526" stroke="#B24D2B"/>
<g clip-path="url(#clip0_114_444)">
<path d="M24.8182 22.0387L23.4382 20.5667C22.6763 19.7541 21.4408 19.7541 20.6794 20.5667C20.3955 20.869 20.2187 21.2412 20.1457 21.6311C17.87 21.1772 15.6567 18.8261 15.519 16.7246C15.8932 16.6505 16.2508 16.4602 16.5402 16.152C17.302 15.3389 17.302 14.021 16.5402 13.2084L15.1605 11.7368C14.3987 10.9242 13.1632 10.9242 12.4013 11.7368C8.26252 16.152 20.6794 29.3966 24.8182 24.9815C25.58 24.1692 25.58 22.8513 24.8182 22.0387Z" fill="#B24D2B"/>
</g>
<defs>
<clipPath id="clip0_114_444">
<rect width="15" height="16" fill="white" transform="translate(10.9785 10.499)"/>
</clipPath>
</defs>
</svg>
