<svg width="37" height="36" viewBox="0 0 37 36" fill="none" xmlns="http://www.w3.org/2000/svg">
<circle cx="18.5272" cy="17.9388" r="17.0526" stroke="#B24D2B"/>
<path fill-rule="evenodd" clip-rule="evenodd" d="M18.5273 24.189C21.9792 24.189 24.7773 21.3908 24.7773 17.939C24.7773 14.4871 21.9792 11.689 18.5273 11.689C15.0755 11.689 12.2773 14.4871 12.2773 17.939C12.2773 21.3908 15.0755 24.189 18.5273 24.189ZM19.1523 14.814C19.1523 14.6482 19.0865 14.4892 18.9693 14.372C18.8521 14.2548 18.6931 14.189 18.5273 14.189C18.3616 14.189 18.2026 14.2548 18.0854 14.372C17.9682 14.4892 17.9023 14.6482 17.9023 14.814V17.6802C17.9024 18.0117 18.0342 18.3296 18.2686 18.564L19.9605 20.2558C20.0783 20.3697 20.2362 20.4327 20.4001 20.4313C20.564 20.4298 20.7207 20.3641 20.8366 20.2482C20.9525 20.1323 21.0182 19.9756 21.0196 19.8117C21.0211 19.6478 20.9581 19.49 20.8442 19.3721L19.1523 17.6802V14.814Z" fill="#B24D2B"/>
</svg>
