<svg id="ball" width="45" height="45" viewBox="0 0 45 45" fill="none" xmlns="http://www.w3.org/2000/svg">
<g clip-path="url(#clip0_1_119)">
<path d="M23 0C10.5791 0 0 10.5792 0 23C0 35.4208 10.5791 45 23 45C35.4209 45 45 35.4208 45 23C45 10.5792 35.4209 0 23 0ZM23 1C34.9142 1 44 11.0858 44 23C44 34.9142 34.9142 44 23 44C11.0858 44 1 34.9142 1 23C1 11.0858 11.0858 1 23 1Z" fill="#CC886A"/>
<path d="M34.3035 27.7145C34.3232 27.6722 34.3392 27.6283 34.3515 27.5833C35.2113 25.4712 35.4602 23.16 35.0698 20.9133C34.6794 18.6665 33.6654 16.5748 32.1434 14.8766C32.092 14.7971 32.0279 14.7266 31.9536 14.6679C30.8357 13.4596 29.4854 12.4894 27.9837 11.8154C26.4819 11.1413 24.8595 10.7773 23.2137 10.7451C21.568 10.713 19.9326 11.0133 18.4056 11.6281C16.8787 12.243 15.4915 13.1597 14.3272 14.3234C13.163 15.4871 12.2455 16.8737 11.6299 18.4004C11.0143 19.927 10.7131 21.5622 10.7444 23.208C10.7757 24.8538 11.1389 26.4764 11.8122 27.9785C12.4854 29.4806 13.455 30.8314 14.6627 31.9499C14.7193 32.0208 14.7869 32.0821 14.8628 32.1318C16.5614 33.6587 18.6555 34.6766 20.9055 35.0691C23.1555 35.4615 25.4706 35.2127 27.5858 34.3509C27.6293 34.3389 27.6718 34.3233 27.7128 34.3044C30.688 33.0558 33.0545 30.6896 34.3035 27.7145ZM27.5151 32.4651L26.2604 31.2104C23.5993 28.5501 21.7213 25.2089 20.8319 21.5527C21.1104 21.3542 21.3539 21.1108 21.5523 20.8323C25.2087 21.7218 28.5499 23.5997 31.2105 26.2608L32.4649 27.515C31.4264 29.6803 29.6803 31.4265 27.5151 32.4651ZM17.7497 19.0625C17.7497 18.8029 17.8266 18.5492 17.9709 18.3333C18.1151 18.1175 18.3201 17.9493 18.5599 17.8499C18.7997 17.7506 19.0636 17.7246 19.3182 17.7752C19.5728 17.8259 19.8067 17.9509 19.9902 18.1344C20.1738 18.318 20.2988 18.5519 20.3494 18.8065C20.4001 19.0611 20.3741 19.325 20.2748 19.5648C20.1754 19.8046 20.0072 20.0096 19.7914 20.1538C19.5755 20.298 19.3218 20.375 19.0622 20.375C18.7142 20.3746 18.3806 20.2362 18.1345 19.9902C17.8885 19.7441 17.7501 19.4105 17.7497 19.0625ZM33.1327 25.7083L32.4478 25.0234C29.5968 22.1725 26.0252 20.1493 22.1141 19.1697C22.1154 19.1333 22.1249 19.0992 22.1249 19.0625C22.1211 18.7917 22.0809 18.5225 22.0054 18.2624C23.2776 17.3312 24.7235 16.6643 26.2577 16.3011C27.7919 15.9378 29.3833 15.8856 30.938 16.1475C32.0642 17.4364 32.854 18.9839 33.2369 20.6521C33.6199 22.3203 33.5842 24.0573 33.133 25.7083H33.1327ZM28.7686 14.2363C26.007 14.281 23.3247 15.1675 21.0803 16.7773C20.8834 16.6034 20.665 16.4556 20.4304 16.3375C20.45 16.2817 20.4635 16.224 20.4709 16.1654C20.5196 14.9717 20.7537 13.7928 21.1646 12.6711C23.8063 12.1841 26.5338 12.7455 28.7684 14.2363H28.7686ZM19.1591 13.2375C18.9158 14.1515 18.7711 15.089 18.7274 16.0339C18.0391 16.1099 17.3972 16.4182 16.9075 16.9079C16.4179 17.3976 16.1096 18.0394 16.0335 18.7277C15.0887 18.7714 14.1512 18.9162 13.2371 19.1595C13.7674 17.8202 14.5664 16.6038 15.5849 15.5853C16.6035 14.5668 17.8199 13.7677 19.1591 13.2375ZM12.6707 21.165C13.7925 20.754 14.9714 20.52 16.165 20.4713C16.2236 20.4635 16.2812 20.4496 16.3368 20.4297C16.455 20.6646 16.6029 20.8832 16.7769 21.0803C15.1674 23.3244 14.2807 26.0062 14.2353 28.7675C12.745 26.5332 12.1838 23.8062 12.6707 21.165ZM16.1465 30.9375C15.8851 29.3828 15.9376 27.7916 16.3009 26.2576C16.6642 24.7235 17.3311 23.2778 18.2621 22.0056C18.5222 22.081 18.7913 22.1212 19.0622 22.125C19.0988 22.125 19.133 22.1155 19.1693 22.1142C20.1486 26.0253 22.1719 29.5971 25.023 32.4479L25.7082 33.133C24.057 33.5844 22.3198 33.6202 20.6514 33.2372C18.983 32.8541 17.4353 32.0641 16.1464 30.9377L16.1465 30.9375Z" fill="#CC886A"/>
</g>
<defs>
<clipPath id="clip0_1_119">
<rect width="45" height="45" fill="white"/>
</clipPath>
</defs>
</svg>
