<svg width="45" height="46" viewBox="0 0 45 46" fill="none" xmlns="http://www.w3.org/2000/svg">
<g clip-path="url(#clip0_1_109)">
<path d="M22.5 0.787109C10.0791 0.787109 0 10.8663 0 23.2871C0 35.708 10.0791 45.7871 22.5 45.7871C34.9209 45.7871 45 35.708 45 23.2871C45 10.8663 34.9209 0.787109 22.5 0.787109ZM22.5 1.72461C34.4142 1.72461 44.0625 11.3729 44.0625 23.2871C44.0625 35.2013 34.4142 44.8496 22.5 44.8496C10.5858 44.8496 0.9375 35.2013 0.9375 23.2871C0.9375 11.3729 10.5858 1.72461 22.5 1.72461ZM15.2399 11.0868C14.981 11.0868 14.7744 11.3039 14.7784 11.5629V11.8906C14.1298 12.084 13.6084 12.5768 13.6084 13.2749C13.6084 14.1263 14.3267 14.793 15.1794 14.8276C15.1928 14.8276 15.2062 14.8274 15.2197 14.8368C15.229 14.837 15.2379 14.8368 15.2472 14.8368C15.6599 14.8368 15.9467 15.1256 15.9467 15.4612C15.9467 15.7934 15.6645 16.0765 15.2582 16.0819C15.2521 16.0818 15.246 16.0818 15.2399 16.0819H15.238C14.8307 16.0819 14.5459 15.7939 14.5459 15.4612C14.5549 14.8272 13.5994 14.8272 13.6084 15.4612C13.6084 16.1742 14.1141 16.7555 14.7784 16.948V17.1769C14.7694 17.8108 15.7249 17.8108 15.7159 17.1769V16.8418C16.3641 16.6485 16.8842 16.1591 16.8842 15.4612C16.8842 14.7122 16.2906 14.1891 15.5768 14.0293H15.575C15.3088 13.8951 15.5705 14.02 15.3571 13.9139C15.3468 13.9139 15.3364 13.9048 15.3259 13.9048H15.3113H15.2472C15.2387 13.9052 15.2301 13.9057 15.2216 13.9048C14.8236 13.8926 14.5459 13.614 14.5459 13.2859C14.5459 12.9503 14.8345 12.6615 15.2472 12.6615C15.6599 12.6615 15.9467 12.9503 15.9467 13.2859C15.9377 13.9198 16.8931 13.9198 16.8842 13.2859C16.8842 12.5728 16.3799 11.9902 15.7159 11.7972V11.5684C15.7201 11.3037 15.5045 11.0882 15.2399 11.0923V11.0868ZM26.6766 11.1143C26.4177 11.1143 26.2112 11.3314 26.2152 11.5903V11.8247C25.6972 12.0142 25.2887 12.4273 25.2887 13.0057C25.2887 13.7457 25.897 14.3443 26.6309 14.3735C26.6488 14.3742 26.6659 14.3827 26.684 14.3827C26.9517 14.3827 27.1417 14.5755 27.1417 14.8185C27.1417 15.0583 26.9556 15.2459 26.6931 15.2506C26.6876 15.2504 26.6821 15.2504 26.6766 15.2506H26.6748C26.4123 15.2412 26.2262 15.0583 26.2262 14.8185C26.2352 14.1845 25.2797 14.1845 25.2887 14.8185C25.2887 15.3966 25.6975 15.8081 26.2152 15.9977V16.2375C26.2062 16.8715 27.1617 16.8715 27.1527 16.2375V15.9977C27.6705 15.8083 28.0792 15.3968 28.0792 14.8185C28.0792 14.1927 27.6061 13.7509 27.0282 13.5862C26.9821 13.5393 26.9265 13.5019 26.8652 13.4781H26.8579C26.8312 13.4688 26.8036 13.4609 26.7755 13.4562H26.7389C26.7262 13.4562 26.7427 13.447 26.7297 13.447C26.7145 13.4463 26.6992 13.4463 26.684 13.447C26.4163 13.447 26.2262 13.2541 26.2262 13.0112C26.2262 12.776 26.4059 12.5927 26.6602 12.5809H26.7096C26.9626 12.5941 27.1417 12.7749 27.1417 13.0094C27.1327 13.6433 28.0882 13.6433 28.0792 13.0094C28.0792 12.4308 27.6708 12.0177 27.1527 11.8284V11.594C27.1568 11.3293 26.9413 11.1138 26.6766 11.1179V11.1143ZM21.3593 13.9176C20.9291 13.9401 20.4974 14.0384 20.083 14.2161C18.4253 14.9267 17.5066 16.7245 17.9022 18.4843C18.2731 20.1343 19.7057 21.3076 21.3684 21.3938L22.4231 25.3562L20.5847 24.2869C19.8759 23.8741 18.9518 24.121 18.5431 24.8344C18.1345 25.5446 18.3784 26.4655 19.0869 26.8778L19.1144 26.8943L19.1437 26.9071C20.2011 27.3442 21.0036 28.2612 21.9672 29.2454C22.8704 30.168 23.9733 31.0993 25.5396 31.6074L25.9735 33.2352L25.448 33.3744C25.188 33.4438 24.9618 33.7305 25.047 34.05L25.8197 36.9449C25.9049 37.2645 26.2427 37.4003 26.5027 37.3313L33.3289 35.5167C33.5885 35.4473 33.8169 35.1625 33.7317 34.8429L32.959 31.948C32.8736 31.6277 32.5341 31.4926 32.2742 31.5616L32.1515 31.5946L31.9098 30.6846C31.7815 30.2023 31.8899 29.5979 32.0416 28.9524C32.1933 28.307 32.4015 27.6306 32.2357 26.9364L32.2339 26.9272L30.9576 22.1335C30.7467 21.3419 29.9237 20.8628 29.1321 21.0734C28.8441 21.1502 28.6595 21.3719 28.4729 21.5806C28.1168 21.1125 27.5837 20.7985 26.9843 20.958C26.7004 21.0339 26.4979 21.2277 26.3141 21.4304C25.953 20.995 25.442 20.7052 24.8639 20.8591H24.8621C24.6691 20.9107 24.5499 21.0644 24.3988 21.1796L24.1772 20.3483H24.1791C25.4706 19.0892 25.6807 17.0819 24.679 15.582C24.1781 14.8321 23.4429 14.3119 22.6263 14.0696C22.2181 13.9484 21.7894 13.8965 21.3593 13.9194V13.9176ZM21.4124 14.8514C22.3803 14.7999 23.3333 15.2533 23.8989 16.1002C24.5465 17.0699 24.5177 18.3087 23.8824 19.2405L23.5748 18.0887C23.3639 17.2971 22.5408 16.8156 21.7493 17.0249V17.0341C20.9601 17.2456 20.482 18.0677 20.6927 18.8596L21.1139 20.438C19.9958 20.2594 19.0725 19.4243 18.8159 18.2828C18.5181 16.9579 19.2047 15.6154 20.4529 15.0803C20.7649 14.9465 21.0897 14.8724 21.4124 14.8551V14.8514ZM11.2317 17.6603V17.6621C10.8761 17.6762 10.6649 18.0651 10.8472 18.3707L11.1017 18.8102C10.4169 19.4332 10.1076 20.3696 10.5688 21.1686C11.0633 22.0248 12.1213 22.1837 13.0682 21.8387H13.1232C13.139 21.8396 13.3417 21.7802 13.3575 21.7802C13.4265 21.7708 13.3066 21.813 13.3667 21.7802C13.9789 21.5145 14.6038 21.6015 14.8645 22.053C15.1245 22.5034 14.9396 23.1407 14.3573 23.4849C14.3492 23.4849 14.3413 23.4939 14.3335 23.4995C13.7442 23.8319 13.0976 23.6734 12.8375 23.223C12.5347 22.6475 11.6789 23.1424 12.0264 23.6918C12.4872 24.4901 13.452 24.6887 14.3335 24.4077L14.5898 24.8527C14.9023 25.3948 15.7154 24.9258 15.4028 24.3839L15.1941 24.0232C15.8927 23.3963 16.145 22.394 15.6775 21.5842C15.405 21.1122 14.9516 20.8169 14.4452 20.7108C14.0467 20.6274 13.625 20.7576 13.2202 20.9141C12.882 20.9713 12.9997 20.9521 12.8888 20.9708H12.8833C12.292 21.3089 11.643 21.1502 11.3818 20.698C11.1295 20.2609 11.3037 19.6533 11.8451 19.3027C11.8894 19.2849 11.9307 19.2613 11.9678 19.2313C12.5419 18.9384 13.1566 19.0911 13.4088 19.528C13.7116 20.1035 14.5674 19.6086 14.22 19.0592C13.9474 18.5871 13.4959 18.292 12.9895 18.1858C12.6267 18.1099 12.2363 18.1335 11.8634 18.2554L11.6583 17.9001C11.5725 17.7464 11.4077 17.6538 11.2317 17.6603ZM22.2125 17.9203V17.9221C22.4265 17.9512 22.6071 18.1054 22.6685 18.3359L23.7726 22.4796L24.6936 22.3313C24.678 22.0717 24.8352 21.8415 25.1056 21.7692C25.4091 21.6885 25.7011 21.8592 25.7831 22.1665L25.8984 22.6005L26.8195 22.4521C26.8037 22.1901 26.9688 21.9387 27.226 21.8699C27.5294 21.7892 27.8233 21.9599 27.9053 22.2672L28.0756 22.9062L28.9819 22.6646C28.9001 22.357 29.0695 22.063 29.3738 21.9816C29.6773 21.9009 29.9711 22.0715 30.0531 22.3789L31.3239 27.158C31.4059 27.5063 31.2846 28.0794 31.1298 28.7382C30.9746 29.3985 30.7978 30.1532 31.0034 30.9263L31.2433 31.8253C29.7917 32.212 28.5844 32.5296 26.8762 32.9862L26.3232 30.9043L26.0632 30.8347C24.5494 30.4235 23.5729 29.5436 22.6373 28.588C21.7143 27.6454 20.8454 26.6147 19.5538 26.063C19.287 25.9028 19.1981 25.5718 19.3542 25.3013H19.3561C19.5137 25.0261 19.8399 24.9394 20.1123 25.098L23.9117 27.3099L21.5973 18.6161C21.5155 18.3087 21.6859 18.0167 21.991 17.9349C22.0667 17.9152 22.1412 17.9109 22.2125 17.9203ZM32.1533 32.5632L32.7246 34.7074L26.6254 36.3279L26.0541 34.1837L32.1533 32.5632Z" fill="#CC886A"/>
</g>
<defs>
<clipPath id="clip0_1_109">
<rect width="45" height="45" fill="white" transform="translate(0 0.787109)"/>
</clipPath>
</defs>
</svg>
