<svg id="products" width="45" height="45" viewBox="0 0 45 45" fill="none" xmlns="http://www.w3.org/2000/svg">
<g clip-path="url(#clip0_1_109)">
<path d="M23 0C10.5791 0 0 10.5792 0 23C0 35.4208 10.5791 45 23 45C35.4209 45 45 35.4208 45 23C45 10.5792 35.4209 0 23 0ZM23 1C34.9142 1 44 11.0858 44 23C44 34.9142 34.9142 44 23 44C11.0858 44 1 34.9142 1 23C1 11.0858 11.0858 1 23 1Z" fill="#CC886A"/>
<path d="M34.719 14.657C33.7198 13.656 32.3163 13.033 31.058 13.033C30.939 13.033 30.82 13.04 30.701 13.0505C30.8463 12.2403 30.7535 11.3233 30.421 10.513C30.1918 9.9565 29.553 9.687 28.9948 9.9145C27.922 10.352 27.0085 11.2148 26.6078 12.1685C26.55 12.305 26.5028 12.4485 26.4625 12.5973C26.403 12.543 26.3418 12.4888 26.2805 12.4363C25.36 11.6733 24.1595 11.36 22.9853 11.5805L11.92 13.642C11.0835 13.7995 10.2803 14.0848 9.53303 14.4925C9.15853 14.6973 8.92578 15.091 8.92578 15.518C8.92578 15.945 9.15853 16.3388 9.53478 16.5435C10.2803 16.9513 11.0835 17.2365 11.92 17.394L18.6068 18.64L18.0818 23.2145C17.835 25.0748 18.7345 26.865 20.376 27.775L20.481 27.8328L20.0575 33.508C20.033 33.8457 20.2868 34.1397 20.6228 34.1642C20.6385 34.166 20.6543 34.166 20.67 34.166C20.9868 34.166 21.2563 33.921 21.279 33.599L21.7323 27.5335C21.734 27.502 21.734 27.4705 21.7305 27.439C21.7305 27.432 21.7288 27.425 21.7288 27.418C21.7253 27.39 21.72 27.362 21.713 27.334C21.7095 27.3235 21.706 27.313 21.7043 27.3043C21.6955 27.278 21.685 27.2518 21.6728 27.2273C21.6693 27.2185 21.6675 27.2115 21.6623 27.2045C21.6465 27.173 21.629 27.145 21.608 27.117C21.601 27.11 21.5958 27.103 21.5888 27.0943C21.5713 27.075 21.5538 27.0558 21.5328 27.0365C21.524 27.0295 21.517 27.0225 21.5083 27.0155C21.4803 26.991 21.4505 26.97 21.4173 26.9525L20.971 26.704C19.7723 26.039 19.116 24.7335 19.298 23.365L19.8143 18.8658L20.4478 18.983V24.373C20.4478 24.7125 20.7225 24.9855 21.0603 24.9855C21.3998 24.9855 21.6728 24.7125 21.6728 24.373V19.2123L22.259 19.3208V24.373C22.259 24.7125 22.5338 24.9855 22.8715 24.9855C23.2093 24.9855 23.484 24.7125 23.484 24.373V19.5133C23.5645 19.5185 23.6433 19.5255 23.7238 19.5255C23.876 19.5255 24.0265 19.5133 24.1753 19.4958L24.6215 23.3755C24.6565 23.631 24.66 23.883 24.6373 24.1298C24.6215 24.2943 24.5935 24.457 24.555 24.6163C24.5358 24.695 24.513 24.7738 24.4868 24.8508C24.233 25.6225 23.6958 26.2893 22.9485 26.704L22.7245 26.8283L22.5005 26.9525C22.343 27.04 22.2363 27.1888 22.1995 27.3585C22.1873 27.4145 22.182 27.474 22.1873 27.5335L22.6388 33.599C22.6615 33.921 22.931 34.166 23.2478 34.166C23.2635 34.166 23.2793 34.166 23.295 34.1642C23.6328 34.1397 23.8848 33.8457 23.8603 33.508L23.4368 27.8328L23.5418 27.775C25.1833 26.865 26.0845 25.0748 25.8378 23.225L25.3723 19.1685C25.6943 19.0215 26.0005 18.8325 26.2805 18.5998C26.3418 18.5473 26.403 18.493 26.4625 18.4388C26.5028 18.5875 26.55 18.731 26.6078 18.8675C26.809 19.3435 27.1363 19.7985 27.5493 20.1888C27.9623 20.5773 28.4575 20.9028 28.9948 21.1215C29.1295 21.1758 29.2695 21.202 29.406 21.202C29.8383 21.202 30.2478 20.9448 30.421 20.523C30.7518 19.7128 30.8463 18.7958 30.701 17.9855C30.82 17.996 30.939 18.003 31.058 18.003C31.688 18.003 32.353 17.8473 32.9865 17.5655C33.6183 17.2855 34.2185 16.8795 34.719 16.379C35.1933 15.9048 35.1933 15.1313 34.719 14.657ZM25.4965 17.6583C25.2095 17.8963 24.8823 18.0678 24.5358 18.1728V17.513C24.5358 17.2715 24.3398 17.0755 24.0983 17.0755C23.9775 17.0755 23.869 17.1245 23.7885 17.2033C23.7098 17.282 23.6608 17.3923 23.6608 17.513V18.2953C23.5103 18.2918 23.3598 18.2795 23.2093 18.2515L16.5593 17.0125V14.7375C16.5575 14.496 16.3633 14.3018 16.1218 14.3018H16.12C15.8785 14.3018 15.6825 14.4978 15.6843 14.7393V16.8498L12.144 16.1883C12.0495 16.1708 11.9585 16.148 11.8658 16.127V15.6755C11.8658 15.434 11.6698 15.238 11.4283 15.238C11.1868 15.238 10.9908 15.434 10.9908 15.6755V15.8628C10.7248 15.763 10.4658 15.651 10.2138 15.518C10.8193 15.1978 11.4685 14.9738 12.144 14.8478L13.1835 14.6535L13.1853 15.2363C13.1853 15.4778 13.3813 15.6738 13.6228 15.6738C13.8643 15.6738 14.0603 15.4778 14.0603 15.2363L14.0585 14.4908L18.6225 13.6385C18.5945 13.6963 18.577 13.761 18.577 13.8293L18.5788 16.2548C18.5788 16.4963 18.7748 16.6923 19.0163 16.6923C19.137 16.6923 19.2455 16.6433 19.326 16.5645C19.4048 16.484 19.4538 16.3755 19.4538 16.2548L19.452 13.8293C19.452 13.7033 19.3995 13.5895 19.3138 13.5108L23.2093 12.7845C23.3598 12.7565 23.5085 12.7443 23.659 12.7408V15.574C23.6608 15.8155 23.855 16.0115 24.0965 16.0115H24.0983C24.3398 16.0098 24.5358 15.8138 24.534 15.5723V12.8615C24.8805 12.9683 25.2095 13.1398 25.4965 13.3795C26.1353 13.908 26.5028 14.6885 26.5028 15.518C26.5028 16.3475 26.1353 17.128 25.4965 17.6583ZM27.7365 12.6428C27.9973 12.0233 28.6168 11.43 29.3343 11.1028C29.6038 11.8448 29.6143 12.7023 29.3535 13.3218C29.3448 13.3445 29.3308 13.3673 29.3203 13.39C28.7165 13.6315 28.1355 13.9885 27.635 14.4348C27.495 13.8065 27.5248 13.145 27.7365 12.6428ZM29.3343 19.9333C28.6168 19.606 27.9973 19.0128 27.7365 18.3933C27.5248 17.891 27.495 17.2313 27.635 16.603C28.1355 17.0475 28.7165 17.4045 29.3203 17.646C29.3308 17.6688 29.3448 17.6915 29.3535 17.7143C29.6143 18.3338 29.6038 19.1913 29.3343 19.9333ZM31.058 16.778C30.1113 16.778 29.042 16.2933 28.2633 15.5233C29.0403 14.7428 30.1113 14.258 31.058 14.258C32.003 14.258 33.074 14.7428 33.8528 15.5128C33.074 16.2933 32.003 16.778 31.058 16.778Z" fill="#CC886A"/>
<path d="M22.2889 17.0352C22.2889 17.156 22.2399 17.2645 22.1611 17.345C22.0806 17.4237 21.9721 17.4727 21.8514 17.4727C21.6099 17.4727 21.4139 17.2767 21.4139 17.0352L21.4121 14.5065C21.4121 14.3857 21.4611 14.2755 21.5399 14.1967C21.6186 14.118 21.7289 14.069 21.8496 14.069C22.0911 14.069 22.2871 14.265 22.2871 14.5065L22.2889 17.0352Z" fill="#CC886A"/>
</g>
<defs>
<clipPath id="clip0_1_109">
<rect width="45" height="45" fill="white"/>
</clipPath>
</defs>
</svg>
