<svg id="calendar" width="45" height="45" viewBox="0 0 45 45" fill="none" xmlns="http://www.w3.org/2000/svg">
<g clip-path="url(#clip0_1_134)">
<path d="M23 0C10.5791 0 0 10.5792 0 23C0 35.4208 10.5791 45 23 45C35.4209 45 45 35.4208 45 23C45 10.5792 35.4209 0 23 0ZM23 1C34.9142 1 44 11.0858 44 23C44 34.9142 34.9142 44 23 44C11.0858 44 1 34.9142 1 23C1 11.0858 11.0858 1 23 1Z" fill="#CC886A"/>
<path d="M17.125 16.3125C16.9095 16.3125 16.7028 16.2269 16.5505 16.0745C16.3981 15.9222 16.3125 15.7155 16.3125 15.5V12.25C16.3125 12.0345 16.3981 11.8278 16.5505 11.6755C16.7028 11.5231 16.9095 11.4375 17.125 11.4375C17.3405 11.4375 17.5472 11.5231 17.6995 11.6755C17.8519 11.8278 17.9375 12.0345 17.9375 12.25V15.5C17.9375 15.7155 17.8519 15.9222 17.6995 16.0745C17.5472 16.2269 17.3405 16.3125 17.125 16.3125ZM26.875 16.3125C26.6595 16.3125 26.4528 16.2269 26.3005 16.0745C26.1481 15.9222 26.0625 15.7155 26.0625 15.5V12.25C26.0625 12.0345 26.1481 11.8278 26.3005 11.6755C26.4528 11.5231 26.6595 11.4375 26.875 11.4375C27.0905 11.4375 27.2972 11.5231 27.4495 11.6755C27.6019 11.8278 27.6875 12.0345 27.6875 12.25V15.5C27.6875 15.7155 27.6019 15.9222 27.4495 16.0745C27.2972 16.2269 27.0905 16.3125 26.875 16.3125Z" fill="#CC886A"/>
<path d="M30.125 32.5625H13.875C12.5311 32.5625 11.4375 31.4689 11.4375 30.125V15.5C11.4375 14.1561 12.5311 13.0625 13.875 13.0625H30.125C31.4689 13.0625 32.5625 14.1561 32.5625 15.5V30.125C32.5625 31.4689 31.4689 32.5625 30.125 32.5625ZM13.875 14.6875C13.6595 14.6875 13.4528 14.7731 13.3005 14.9255C13.1481 15.0778 13.0625 15.2845 13.0625 15.5V30.125C13.0625 30.3405 13.1481 30.5472 13.3005 30.6995C13.4528 30.8519 13.6595 30.9375 13.875 30.9375H30.125C30.3405 30.9375 30.5472 30.8519 30.6995 30.6995C30.8519 30.5472 30.9375 30.3405 30.9375 30.125V15.5C30.9375 15.2845 30.8519 15.0778 30.6995 14.9255C30.5472 14.7731 30.3405 14.6875 30.125 14.6875H13.875Z" fill="#CC886A"/>
<path d="M31.75 19.5625H12.25C12.0345 19.5625 11.8278 19.4769 11.6755 19.3245C11.5231 19.1722 11.4375 18.9655 11.4375 18.75C11.4375 18.5345 11.5231 18.3278 11.6755 18.1755C11.8278 18.0231 12.0345 17.9375 12.25 17.9375H31.75C31.9655 17.9375 32.1722 18.0231 32.3245 18.1755C32.4769 18.3278 32.5625 18.5345 32.5625 18.75C32.5625 18.9655 32.4769 19.1722 32.3245 19.3245C32.1722 19.4769 31.9655 19.5625 31.75 19.5625ZM17.9375 21.1875H19.5625V22.8125H17.9375V21.1875ZM21.1875 21.1875H22.8125V22.8125H21.1875V21.1875ZM24.4375 21.1875H26.0625V22.8125H24.4375V21.1875ZM27.6875 21.1875H29.3125V22.8125H27.6875V21.1875ZM14.6875 24.4375H16.3125V26.0625H14.6875V24.4375ZM17.9375 24.4375H19.5625V26.0625H17.9375V24.4375ZM21.1875 24.4375H22.8125V26.0625H21.1875V24.4375ZM24.4375 24.4375H26.0625V26.0625H24.4375V24.4375ZM27.6875 24.4375H29.3125V26.0625H27.6875V24.4375ZM14.6875 27.6875H16.3125V29.3125H14.6875V27.6875ZM17.9375 27.6875H19.5625V29.3125H17.9375V27.6875ZM21.1875 27.6875H22.8125V29.3125H21.1875V27.6875Z" fill="#CC886A"/>
</g>
<defs>
<clipPath id="clip0_1_134">
<rect width="45" height="45" fill="white"/>
</clipPath>
</defs>
</svg>
