<svg id="golf" viewBox="0 0 45 45" fill="none" xmlns="http://www.w3.org/2000/svg">
<g clip-path="url(#clip0_1_124)">
<path d="M23 0C10.5791 0 0 10.5792 0 23C0 35.4208 10.5791 45 23 45C35.4209 45 45 35.4208 45 23C45 10.5792 35.4209 0 23 0ZM23 1C34.9142 1 44 11.0858 44 23C44 34.9142 34.9142 44 23 44C11.0858 44 1 34.9142 1 23C1 11.0858 11.0858 1 23 1Z" fill="#CC886A"/>
<g clip-path="url(#clip1_1_124)">
<path fill-rule="evenodd" clip-rule="evenodd" d="M20.005 8C19.889 8 19.7777 8.04609 19.6956 8.12814C19.6136 8.21019 19.5675 8.32147 19.5675 8.4375V29.4856C17.9461 29.6134 16.519 29.952 15.4611 30.463C14.8705 30.7483 14.3884 31.0825 14.0471 31.4832C13.7059 31.884 13.5081 32.3766 13.5641 32.8859C13.6752 33.9053 14.629 34.6394 15.9135 35.1574C17.198 35.6754 18.8937 35.9842 20.7619 36C22.6309 36.0158 24.3529 35.734 25.6802 35.2387C27.0085 34.7452 28.0095 34.0461 28.2169 33.0399C28.3201 32.5368 28.1696 32.0275 27.8616 31.6136C27.5527 31.1989 27.0977 30.8532 26.5316 30.5566C25.4589 29.9949 23.9661 29.6186 22.2389 29.4821V16.8357L31.1324 13.8187C31.2189 13.7894 31.2941 13.7336 31.3474 13.6593C31.4007 13.585 31.4293 13.4959 31.4293 13.4044C31.4293 13.313 31.4007 13.2239 31.3474 13.1496C31.2941 13.0753 31.2189 13.0195 31.1324 12.9901L22.2389 9.974V8.4375C22.2389 8.32147 22.1928 8.21019 22.1107 8.12814C22.0287 8.04609 21.9174 8 21.8014 8H20.0041H20.005ZM20.4425 8.875H21.3639V32.7634C21.3639 32.8794 21.41 32.9907 21.492 33.0727C21.574 33.1548 21.6853 33.2009 21.8014 33.2009C21.9174 33.2009 22.0287 33.1548 22.1107 33.0727C22.1928 32.9907 22.2389 32.8794 22.2389 32.7634V30.3484C23.8462 30.484 25.2217 30.8462 26.1317 31.3223C26.6182 31.5777 26.9717 31.863 27.1695 32.129C27.3672 32.3959 27.4215 32.619 27.3707 32.8657C27.2692 33.3601 26.578 33.984 25.3801 34.4294C24.1814 34.8756 22.5451 35.1495 20.7689 35.1355C18.9926 35.1206 17.3852 34.8188 16.2364 34.3568C15.0875 33.893 14.4767 33.2787 14.4234 32.7922C14.3971 32.549 14.4759 32.3145 14.7051 32.0441C14.9361 31.7729 15.322 31.4894 15.8365 31.2409C16.7465 30.8016 18.0599 30.4796 19.5675 30.3519V32.7625C19.5675 32.8785 19.6136 32.9898 19.6956 33.0719C19.7777 33.1539 19.889 33.2 20.005 33.2C20.121 33.2 20.2323 33.1539 20.3143 33.0719C20.3964 32.9898 20.4425 32.8785 20.4425 32.7625V8.875ZM22.2389 10.8989L29.63 13.404L22.2389 15.9109V10.898V10.8989ZM34.2509 28.3C33.767 28.3 33.3216 28.4181 32.9672 28.6386C32.6137 28.8591 32.3267 29.2196 32.3267 29.6659C32.3267 30.1121 32.6137 30.4718 32.9672 30.6931C33.3216 30.9136 33.767 31.0309 34.2509 31.0309C34.7356 31.0309 35.181 30.9136 35.5345 30.6931C35.8889 30.4718 36.175 30.1112 36.175 29.6659C36.175 29.2196 35.8889 28.8591 35.5345 28.6386C35.181 28.4181 34.7356 28.3 34.2509 28.3ZM34.2509 29.175C34.5877 29.175 34.887 29.2651 35.0716 29.3806C35.2554 29.4952 35.3 29.5994 35.3 29.6659C35.3 29.7324 35.2562 29.8339 35.0716 29.9494C34.8879 30.064 34.5877 30.1559 34.2509 30.1559C33.914 30.1559 33.6147 30.064 33.431 29.9494C33.2472 29.8347 33.2017 29.7324 33.2017 29.6659C33.2017 29.5985 33.2464 29.4952 33.431 29.3806C33.6147 29.2651 33.914 29.175 34.2509 29.175Z" fill="#CC886A"/>
</g>
</g>
<defs>
<clipPath id="clip0_1_124">
<rect width="45" height="45" fill="white"/>
</clipPath>
<clipPath id="clip1_1_124">
<rect width="28" height="28" fill="white" transform="translate(11 8)"/>
</clipPath>
</defs>
</svg>
