<svg id="inventory" width="45" height="45" viewBox="0 0 45 45" fill="none" xmlns="http://www.w3.org/2000/svg">
<g clip-path="url(#clip0_1_114)">
<path d="M23 0C10.5791 0 0 10.5792 0 23C0 35.4208 10.5791 45 23 45C35.4209 45 45 35.4208 45 23C45 10.5792 35.4209 0 23 0ZM23 1C34.9142 1 44 11.0858 44 23C44 34.9142 34.9142 44 23 44C11.0858 44 1 34.9142 1 23C1 11.0858 11.0858 1 23 1Z" fill="#CC886A"/>
<path d="M15.2646 30.1128C15.489 30.1128 15.6709 29.9309 15.6709 29.7065C15.6709 29.4822 15.489 29.3003 15.2646 29.3003C15.0403 29.3003 14.8584 29.4822 14.8584 29.7065C14.8584 29.9309 15.0403 30.1128 15.2646 30.1128Z" fill="#CC886A"/>
<path d="M16.9512 30.1128C17.1755 30.1128 17.3574 29.9309 17.3574 29.7065C17.3574 29.4822 17.1755 29.3003 16.9512 29.3003C16.7268 29.3003 16.5449 29.4822 16.5449 29.7065C16.5449 29.9309 16.7268 30.1128 16.9512 30.1128Z" fill="#CC886A"/>
<path d="M18.6328 30.1128C18.8572 30.1128 19.0391 29.9309 19.0391 29.7065C19.0391 29.4822 18.8572 29.3003 18.6328 29.3003C18.4084 29.3003 18.2266 29.4822 18.2266 29.7065C18.2266 29.9309 18.4084 30.1128 18.6328 30.1128Z" fill="#CC886A"/>
<path d="M31.9944 11.0313H14.0097C13.4857 11.0312 12.9831 11.2391 12.6122 11.6093C12.2412 11.9794 12.0323 12.4816 12.0312 13.0056V30.9903C12.0312 31.515 12.2397 32.0182 12.6107 32.3893C12.9818 32.7603 13.485 32.9688 14.0097 32.9688H31.9944C32.5184 32.9677 33.0206 32.7588 33.3907 32.3878C33.7609 32.0169 33.9688 31.5143 33.9688 30.9903V13.0056C33.9677 12.4823 33.7593 11.9808 33.3893 11.6107C33.0192 11.2407 32.5177 11.0323 31.9944 11.0313ZM14.0097 11.8438H31.9944C32.3022 11.8448 32.5971 11.9676 32.8148 12.1852C33.0324 12.4029 33.1552 12.6978 33.1562 13.0056V26.4688H12.8438V13.0056C12.8448 12.6971 12.9681 12.4016 13.1867 12.1838C13.4052 11.966 13.7012 11.8437 14.0097 11.8438ZM31.9944 32.1562H14.0097C13.7008 32.1552 13.4049 32.032 13.1864 31.8136C12.968 31.5951 12.8448 31.2992 12.8438 30.9903V27.2812H33.1562V30.9903C33.1563 31.2988 33.034 31.5948 32.8162 31.8133C32.5984 32.0319 32.3029 32.1552 31.9944 32.1562Z" fill="#CC886A"/>
<path d="M31.182 29.3125H23.9548C23.8779 29.0293 23.71 28.7793 23.4769 28.6011C23.2437 28.4228 22.9584 28.3262 22.665 28.3262C22.3716 28.3262 22.0863 28.4228 21.8531 28.6011C21.62 28.7793 21.4521 29.0293 21.3752 29.3125H20.5627C20.4549 29.3125 20.3516 29.3553 20.2754 29.4315C20.1992 29.5077 20.1564 29.611 20.1564 29.7188C20.1564 29.8265 20.1992 29.9298 20.2754 30.006C20.3516 30.0822 20.4549 30.125 20.5627 30.125H21.3752C21.4569 30.4015 21.6259 30.6442 21.8569 30.8168C22.0879 30.9894 22.3685 31.0826 22.6569 31.0826C22.9452 31.0826 23.2259 30.9894 23.4569 30.8168C23.6878 30.6442 23.8568 30.4015 23.9386 30.125H31.182C31.2898 30.125 31.3931 30.0822 31.4693 30.006C31.5455 29.9298 31.5883 29.8265 31.5883 29.7188C31.5883 29.611 31.5455 29.5077 31.4693 29.4315C31.3931 29.3553 31.2898 29.3125 31.182 29.3125ZM22.6711 30.2591C22.5613 30.259 22.454 30.2263 22.3629 30.165C22.2718 30.1038 22.201 30.0168 22.1596 29.9151C22.1182 29.8134 22.1079 29.7017 22.1303 29.5942C22.1526 29.4867 22.2064 29.3883 22.2849 29.3116C22.3634 29.2348 22.463 29.1832 22.571 29.1632C22.6789 29.1433 22.7904 29.156 22.8911 29.1997C22.9918 29.2434 23.0772 29.3161 23.1365 29.4086C23.1957 29.501 23.226 29.609 23.2236 29.7188C23.2204 29.8632 23.1608 30.0006 23.0575 30.1016C22.9543 30.2026 22.8155 30.2591 22.6711 30.2591ZM23.0002 22.5159C23.6849 22.5167 24.3545 22.3144 24.9242 21.9346C25.494 21.5548 25.9382 21.0145 26.2008 20.3821C26.4634 19.7497 26.5326 19.0536 26.3995 18.3819C26.2664 17.7102 25.937 17.0931 25.4531 16.6087C24.9692 16.1242 24.3525 15.7941 23.681 15.6603C23.0094 15.5264 22.3133 15.5947 21.6806 15.8565C21.0479 16.1184 20.5071 16.562 20.1266 17.1313C19.7461 17.7006 19.543 18.37 19.543 19.0547C19.543 19.972 19.9071 20.8517 20.5553 21.5007C21.2035 22.1497 22.0829 22.5149 23.0002 22.5159ZM23.0002 16.4222C23.5244 16.4214 24.037 16.5762 24.4732 16.8669C24.9095 17.1576 25.2496 17.5713 25.4506 18.0554C25.6515 18.5396 25.7043 19.0725 25.6023 19.5867C25.5002 20.1009 25.2478 20.5732 24.8772 20.9439C24.5065 21.3146 24.0342 21.5669 23.52 21.669C23.0058 21.7711 22.4729 21.7183 21.9887 21.5173C21.5045 21.3163 21.0909 20.9762 20.8002 20.54C20.5094 20.1038 20.3547 19.5911 20.3555 19.0669C20.3544 18.7187 20.422 18.3737 20.5544 18.0517C20.6867 17.7297 20.8813 17.4369 21.127 17.1901C21.3726 16.9433 21.6645 16.7474 21.9859 16.6136C22.3073 16.4797 22.652 16.4105 23.0002 16.41V16.4222Z" fill="#CC886A"/>
<path d="M27.205 19.0547C27.2081 19.6062 27.102 20.153 26.8928 20.6633C26.6836 21.1737 26.3755 21.6376 25.9862 22.0284C25.8827 22.1315 25.8005 22.254 25.7444 22.3889C25.6884 22.5238 25.6595 22.6684 25.6595 22.8145C25.6595 22.9606 25.6884 23.1052 25.7444 23.2401C25.8005 23.375 25.8827 23.4975 25.9862 23.6006C26.0885 23.7045 26.2106 23.7868 26.3453 23.8426C26.48 23.8985 26.6245 23.9267 26.7703 23.9256C26.9166 23.9263 27.0617 23.898 27.197 23.8422C27.3322 23.7864 27.4551 23.7043 27.5584 23.6006C28.7626 22.3942 29.4389 20.7592 29.4389 19.0547C29.4389 17.3501 28.7626 15.7152 27.5584 14.5087C27.3492 14.3016 27.0667 14.1854 26.7723 14.1854C26.4779 14.1854 26.1954 14.3016 25.9862 14.5087C25.8821 14.6118 25.7994 14.7346 25.7429 14.8699C25.6865 15.0052 25.6575 15.1503 25.6575 15.2968C25.6575 15.4434 25.6865 15.5885 25.7429 15.7238C25.7994 15.8591 25.8821 15.9818 25.9862 16.085C26.3752 16.4751 26.6832 16.9384 26.8923 17.448C27.1015 17.9577 27.2077 18.5037 27.205 19.0547ZM26.5468 15.0937C26.6014 15.0411 26.6742 15.0117 26.75 15.0117C26.8257 15.0117 26.8986 15.0411 26.9531 15.0937C27.4748 15.6151 27.8886 16.2342 28.171 16.9155C28.4533 17.5969 28.5986 18.3273 28.5986 19.0648C28.5986 19.8024 28.4533 20.5327 28.171 21.2141C27.8886 21.8955 27.4748 22.5145 26.9531 23.0359C26.8944 23.0727 26.8248 23.088 26.756 23.0794C26.6873 23.0707 26.6237 23.0386 26.5759 22.9884C26.5281 22.9383 26.4991 22.8731 26.4938 22.8041C26.4885 22.735 26.5073 22.6662 26.5468 22.6093C27.0129 22.1438 27.3826 21.5909 27.6348 20.9824C27.8871 20.3738 28.0169 19.7215 28.0169 19.0628C28.0169 18.404 27.8871 17.7517 27.6348 17.1432C27.3826 16.5347 27.0129 15.9818 26.5468 15.5162C26.4942 15.4617 26.4648 15.3889 26.4648 15.3131C26.4648 15.2373 26.4942 15.1645 26.5468 15.11V15.0937ZM18.4543 23.6006C18.5576 23.7043 18.6805 23.7864 18.8158 23.8422C18.9511 23.898 19.0961 23.9263 19.2425 23.9256C19.3883 23.9267 19.5328 23.8985 19.6675 23.8426C19.8022 23.7868 19.9243 23.7045 20.0265 23.6006C20.1301 23.4975 20.2122 23.375 20.2683 23.2401C20.3244 23.1052 20.3532 22.9606 20.3532 22.8145C20.3532 22.6684 20.3244 22.5238 20.2683 22.3889C20.2122 22.254 20.1301 22.1315 20.0265 22.0284C19.636 21.6383 19.3263 21.175 19.1149 20.6651C18.9036 20.1552 18.7948 19.6087 18.7948 19.0567C18.7948 18.5047 18.9036 17.9582 19.1149 17.4482C19.3263 16.9383 19.636 16.4751 20.0265 16.085C20.1301 15.9819 20.2122 15.8594 20.2683 15.7245C20.3244 15.5896 20.3532 15.445 20.3532 15.2989C20.3532 15.1528 20.3244 15.0081 20.2683 14.8732C20.2122 14.7383 20.1301 14.6158 20.0265 14.5128C19.8153 14.3095 19.5336 14.1959 19.2404 14.1959C18.9473 14.1959 18.6655 14.3095 18.4543 14.5128C17.2504 15.7185 16.5742 17.3528 16.5742 19.0567C16.5742 20.7606 17.2504 22.3948 18.4543 23.6006ZM19.0272 15.0693C19.0551 15.0412 19.0883 15.0189 19.1249 15.0037C19.1615 14.9884 19.2008 14.9806 19.2404 14.9806C19.2801 14.9806 19.3193 14.9884 19.3559 15.0037C19.3926 15.0189 19.4258 15.0412 19.4537 15.0693C19.4812 15.0972 19.5028 15.1302 19.5175 15.1665C19.5321 15.2027 19.5394 15.2415 19.539 15.2806C19.5397 15.3197 19.5324 15.3586 19.5178 15.3949C19.5031 15.4312 19.4814 15.4641 19.4537 15.4918C18.9877 15.9574 18.618 16.5103 18.3657 17.1188C18.1135 17.7274 17.9837 18.3797 17.9837 19.0384C17.9837 19.6972 18.1135 20.3494 18.3657 20.958C18.618 21.5665 18.9877 22.1194 19.4537 22.585C19.4818 22.6129 19.5042 22.6461 19.5194 22.6827C19.5346 22.7193 19.5425 22.7586 19.5425 22.7983C19.5425 22.8379 19.5346 22.8772 19.5194 22.9138C19.5042 22.9504 19.4818 22.9836 19.4537 23.0115C19.3987 23.0632 19.3261 23.092 19.2506 23.092C19.1751 23.092 19.1025 23.0632 19.0475 23.0115C17.9949 21.958 17.4036 20.5297 17.4036 19.0404C17.4036 17.5512 17.9949 16.1229 19.0475 15.0693H19.0272Z" fill="#CC886A"/>
<path d="M30.0401 19.0547C30.0419 19.9128 29.8737 20.7628 29.5453 21.5556C29.2169 22.3484 28.7348 23.0683 28.1267 23.6738C27.972 23.8297 27.8669 24.0278 27.8246 24.2433C27.7822 24.4588 27.8046 24.682 27.8889 24.8849C27.9731 25.0877 28.1155 25.261 28.2981 25.3831C28.4806 25.5052 28.6952 25.5706 28.9148 25.571C29.0606 25.572 29.2052 25.5438 29.3398 25.488C29.4745 25.4322 29.5966 25.3499 29.6989 25.246C31.3402 23.6035 32.2622 21.3766 32.2622 19.0547C32.2622 16.7328 31.3402 14.5059 29.6989 12.8635C29.4897 12.6563 29.2072 12.5401 28.9128 12.5401C28.6184 12.5401 28.3359 12.6563 28.1267 12.8635C27.9183 13.0728 27.8013 13.3562 27.8013 13.6516C27.8013 13.947 27.9183 14.2303 28.1267 14.4397C28.7354 15.0439 29.2179 15.763 29.5464 16.5553C29.8749 17.3475 30.0427 18.1971 30.0401 19.0547ZM28.6873 13.4403C28.7454 13.3846 28.8222 13.3527 28.9026 13.351C28.9819 13.3525 29.0576 13.3845 29.1139 13.4403C30.6016 14.9309 31.4372 16.9508 31.4372 19.0567C31.4372 21.1627 30.6016 23.1826 29.1139 24.6731C29.0576 24.7223 28.9855 24.7494 28.9108 24.7494C28.8361 24.7494 28.7639 24.7223 28.7076 24.6731C28.6568 24.6177 28.6286 24.5452 28.6286 24.47C28.6286 24.3948 28.6568 24.3223 28.7076 24.2669C29.3895 23.5837 29.93 22.7727 30.298 21.8804C30.6661 20.9881 30.8546 20.032 30.8527 19.0667C30.8508 18.1015 30.6586 17.1461 30.287 16.2552C29.9155 15.3644 29.3719 14.5555 28.6873 13.875C28.6374 13.8192 28.6097 13.7468 28.6097 13.6719C28.6097 13.5969 28.6374 13.5246 28.6873 13.4688V13.4403ZM17.0848 25.575C17.3044 25.5735 17.5187 25.5073 17.7009 25.3847C17.8831 25.2621 18.0251 25.0885 18.1092 24.8857C18.1933 24.6828 18.2157 24.4597 18.1737 24.2441C18.1317 24.0286 18.0271 23.8302 17.873 23.6738C17.2665 23.0675 16.7855 22.3477 16.4572 21.5555C16.129 20.7633 15.9601 19.9142 15.9601 19.0567C15.9601 18.1992 16.129 17.3501 16.4572 16.5579C16.7855 15.7657 17.2665 15.046 17.873 14.4397C18.0813 14.2303 18.1983 13.947 18.1983 13.6516C18.1983 13.3562 18.0813 13.0728 17.873 12.8635C17.6608 12.662 17.3794 12.5497 17.0869 12.5497C16.7943 12.5497 16.5129 12.662 16.3008 12.8635C15.4855 13.6748 14.8392 14.6397 14.3992 15.7024C13.9592 16.7651 13.7342 17.9045 13.7373 19.0547C13.7421 21.3769 14.6633 23.6034 16.3008 25.25C16.4032 25.3537 16.5253 25.4359 16.66 25.4917C16.7946 25.5476 16.9391 25.5759 17.0848 25.575ZM16.8736 13.4403C16.8956 13.3987 16.927 13.3629 16.9654 13.3356C17.0038 13.3084 17.048 13.2905 17.0946 13.2835C17.1411 13.2765 17.1886 13.2805 17.2333 13.2952C17.2781 13.3099 17.3187 13.3349 17.352 13.3682C17.3852 13.4015 17.4102 13.4421 17.4249 13.4868C17.4397 13.5315 17.4437 13.5791 17.4366 13.6256C17.4296 13.6721 17.4118 13.7164 17.3846 13.7548C17.3573 13.7931 17.3214 13.8246 17.2798 13.8466C16.5972 14.5284 16.0557 15.338 15.6863 16.2292C15.3168 17.1204 15.1266 18.0757 15.1266 19.0405C15.1266 20.0052 15.3168 20.9605 15.6863 21.8518C16.0557 22.743 16.5972 23.5526 17.2798 24.2344C17.3079 24.2618 17.3299 24.2948 17.3446 24.3311C17.3593 24.3675 17.3663 24.4065 17.3651 24.4456C17.3656 24.4847 17.3582 24.5235 17.3436 24.5598C17.3289 24.596 17.3073 24.629 17.2798 24.6569C17.2236 24.706 17.1514 24.7331 17.0767 24.7331C17.002 24.7331 16.9298 24.706 16.8736 24.6569C15.3936 23.1669 14.559 21.1547 14.5498 19.0547C14.5468 18.0117 14.7507 16.9785 15.1495 16.0148C15.5484 15.0511 16.1344 14.1761 16.8736 13.4403ZM22.1873 20.6066C22.2865 20.6648 22.3994 20.6955 22.5144 20.6955C22.6293 20.6955 22.7422 20.6648 22.8414 20.6066L24.182 19.7697C24.2802 19.7098 24.3612 19.6256 24.4174 19.5253C24.4736 19.425 24.5031 19.3119 24.503 19.1969C24.5023 19.0821 24.4725 18.9693 24.4164 18.8691C24.3603 18.7689 24.2796 18.6846 24.182 18.6241L22.8414 17.7872C22.7436 17.7264 22.6313 17.6928 22.5161 17.6899C22.401 17.6871 22.2872 17.7151 22.1865 17.771C22.0858 17.8269 22.0019 17.9088 21.9434 18.0081C21.885 18.1074 21.8542 18.2205 21.8542 18.3356V20.0581C21.8575 20.1706 21.89 20.2802 21.9484 20.3763C22.0068 20.4725 22.0891 20.5518 22.1873 20.6066ZM22.6667 18.6241L23.5645 19.1806L22.6667 19.7413V18.6241Z" fill="#CC886A"/>
</g>
<defs>
<clipPath id="clip0_1_114">
<rect width="45" height="45" fill="white"/>
</clipPath>
</defs>
</svg>
