<svg id="menu" width="45" height="45" viewBox="0 0 45 45" fill="none" xmlns="http://www.w3.org/2000/svg">
<path d="M30.0938 32.7812H18.375C18.3134 32.7813 18.2525 32.7692 18.1956 32.7456C18.1387 32.722 18.087 32.6875 18.0435 32.644C18 32.6005 17.9655 32.5488 17.9419 32.4919C17.9183 32.435 17.9062 32.3741 17.9063 32.3125V14.5C17.9062 14.4384 17.9183 14.3775 17.9419 14.3206C17.9655 14.2637 18 14.212 18.0435 14.1685C18.087 14.125 18.1387 14.0905 18.1956 14.0669C18.2525 14.0433 18.3134 14.0312 18.375 14.0313H30.0938C30.5909 14.0318 31.0675 14.2295 31.419 14.581C31.7705 14.9325 31.9682 15.4091 31.9688 15.9062V30.9062C31.9682 31.4034 31.7705 31.88 31.419 32.2315C31.0675 32.583 30.5909 32.7807 30.0938 32.7812ZM18.8438 31.8438H30.0938C30.3423 31.8435 30.5806 31.7446 30.7563 31.5688C30.9321 31.3931 31.031 31.1548 31.0312 30.9062V15.9062C31.031 15.6577 30.9321 15.4194 30.7563 15.2437C30.5806 15.0679 30.3423 14.969 30.0938 14.9688H18.8438V31.8438Z" fill="#CC886A"/>
<path d="M16.0313 14.969C15.9214 14.9689 15.815 14.9302 15.7308 14.8597C15.6465 14.7892 15.5897 14.6914 15.5702 14.5833C15.5506 14.4752 15.5697 14.3636 15.624 14.2681C15.6784 14.1726 15.7645 14.0993 15.8674 14.0608L22.9027 11.4344C23.1856 11.3337 23.4886 11.3025 23.7861 11.3433C24.0835 11.3842 24.3669 11.4958 24.6122 11.6689C24.8576 11.842 25.0577 12.0715 25.1959 12.3381C25.3341 12.6047 25.4062 12.9006 25.4063 13.2009V14.5C25.4063 14.6243 25.3569 14.7435 25.269 14.8314C25.1811 14.9194 25.0618 14.9687 24.9375 14.9687C24.8132 14.9687 24.694 14.9194 24.606 14.8314C24.5181 14.7435 24.4688 14.6243 24.4688 14.5V13.2009C24.4687 13.0511 24.4328 12.9036 24.3641 12.7706C24.2953 12.6375 24.1957 12.5229 24.0736 12.4363C23.9514 12.3497 23.8103 12.2935 23.6621 12.2726C23.5138 12.2517 23.3627 12.2666 23.2213 12.316L16.1951 14.9392C16.1427 14.9588 16.0872 14.9689 16.0313 14.969ZM16.9688 20.125H14.3906C13.9554 20.1244 13.538 19.952 13.2293 19.6453C13.0002 19.4155 12.8443 19.123 12.7813 18.8048C12.7183 18.4865 12.7509 18.1567 12.8752 17.857C12.9994 17.5573 13.2097 17.3011 13.4794 17.1208C13.7491 16.9404 14.0662 16.844 14.3906 16.8437H15.5625C15.6868 16.8437 15.8061 16.8931 15.894 16.981C15.9819 17.0689 16.0313 17.1882 16.0313 17.3125C16.0313 17.4368 15.9819 17.556 15.894 17.6439C15.8061 17.7319 15.6868 17.7812 15.5625 17.7812H14.3906C14.2041 17.7812 14.0253 17.8553 13.8934 17.9872C13.7616 18.119 13.6875 18.2979 13.6875 18.4844C13.6875 18.6708 13.7616 18.8497 13.8934 18.9815C14.0253 19.1134 14.2041 19.1875 14.3906 19.1875H16.9688C17.0931 19.1875 17.2123 19.2369 17.3002 19.3248C17.3881 19.4127 17.4375 19.5319 17.4375 19.6562C17.4375 19.7806 17.3881 19.8998 17.3002 19.9877C17.2123 20.0756 17.0931 20.125 16.9688 20.125ZM16.9688 24.8125H14.3906C13.9554 24.8119 13.538 24.6395 13.2293 24.3328C13.0002 24.103 12.8443 23.8105 12.7813 23.4923C12.7183 23.174 12.7509 22.8442 12.8752 22.5445C12.9994 22.2448 13.2097 21.9886 13.4794 21.8083C13.7491 21.6279 14.0662 21.5315 14.3906 21.5312H15.5625C15.6868 21.5312 15.8061 21.5806 15.894 21.6685C15.9819 21.7564 16.0313 21.8757 16.0313 22C16.0313 22.1243 15.9819 22.2435 15.894 22.3314C15.8061 22.4194 15.6868 22.4687 15.5625 22.4687H14.3906C14.2041 22.4687 14.0253 22.5428 13.8934 22.6747C13.7616 22.8065 13.6875 22.9854 13.6875 23.1719C13.6875 23.3583 13.7616 23.5372 13.8934 23.6691C14.0253 23.8009 14.2041 23.875 14.3906 23.875H16.9688C17.0931 23.875 17.2123 23.9244 17.3002 24.0123C17.3881 24.1002 17.4375 24.2194 17.4375 24.3437C17.4375 24.4681 17.3881 24.5873 17.3002 24.6752C17.2123 24.7631 17.0931 24.8125 16.9688 24.8125ZM16.9688 29.5H14.3906C13.9554 29.4994 13.538 29.327 13.2293 29.0203C13.0002 28.7905 12.8443 28.498 12.7813 28.1798C12.7183 27.8615 12.7509 27.5317 12.8752 27.232C12.9994 26.9323 13.2097 26.6761 13.4794 26.4957C13.7491 26.3154 14.0662 26.219 14.3906 26.2187H15.5625C15.6868 26.2187 15.8061 26.2681 15.894 26.356C15.9819 26.4439 16.0313 26.5632 16.0313 26.6875C16.0313 26.8118 15.9819 26.931 15.894 27.0189C15.8061 27.1069 15.6868 27.1562 15.5625 27.1562H14.3906C14.2041 27.1562 14.0253 27.2303 13.8934 27.3622C13.7616 27.494 13.6875 27.6729 13.6875 27.8594C13.6875 28.0458 13.7616 28.2247 13.8934 28.3566C14.0253 28.4884 14.2041 28.5625 14.3906 28.5625H16.9688C17.0931 28.5625 17.2123 28.6119 17.3002 28.6998C17.3881 28.7877 17.4375 28.9069 17.4375 29.0312C17.4375 29.1556 17.3881 29.2748 17.3002 29.3627C17.2123 29.4506 17.0931 29.5 16.9688 29.5ZM28.6875 22.9375H21.1875C21.1259 22.9375 21.065 22.9254 21.0081 22.9018C20.9512 22.8783 20.8995 22.8438 20.856 22.8002C20.8125 22.7567 20.778 22.705 20.7544 22.6481C20.7308 22.5913 20.7187 22.5303 20.7188 22.4687V21.5312C20.7188 20.4124 21.1632 19.3393 21.9544 18.5481C22.7456 17.757 23.8186 17.3125 24.9375 17.3125C26.0564 17.3125 27.1294 17.757 27.9206 18.5481C28.7118 19.3393 29.1563 20.4124 29.1563 21.5312V22.4687C29.1563 22.5303 29.1442 22.5913 29.1206 22.6481C29.0971 22.705 29.0625 22.7567 29.019 22.8002C28.9755 22.8438 28.9238 22.8783 28.8669 22.9018C28.81 22.9254 28.7491 22.9375 28.6875 22.9375ZM21.6563 22H28.2188V21.5312C28.2188 20.661 27.8731 19.8264 27.2577 19.211C26.6423 18.5957 25.8077 18.25 24.9375 18.25C24.0673 18.25 23.2327 18.5957 22.6173 19.211C22.002 19.8264 21.6563 20.661 21.6563 21.5312V22Z" fill="#CC886A"/>
<path d="M29.625 22.9375H20.25C20.1257 22.9375 20.0065 22.8881 19.9185 22.8002C19.8306 22.7123 19.7812 22.5931 19.7812 22.4688C19.7812 22.3444 19.8306 22.2252 19.9185 22.1373C20.0065 22.0494 20.1257 22 20.25 22H29.625C29.7493 22 29.8685 22.0494 29.9565 22.1373C30.0444 22.2252 30.0938 22.3444 30.0938 22.4688C30.0938 22.5931 30.0444 22.7123 29.9565 22.8002C29.8685 22.8881 29.7493 22.9375 29.625 22.9375ZM28.6875 29.5H21.1875C21.1259 29.5 21.065 29.4879 21.0081 29.4644C20.9512 29.4408 20.8995 29.4063 20.856 29.3627C20.8125 29.3192 20.778 29.2675 20.7544 29.2107C20.7308 29.1538 20.7187 29.0928 20.7188 29.0312V26.6875C20.7187 26.6259 20.7308 26.565 20.7544 26.5081C20.778 26.4512 20.8125 26.3995 20.856 26.356C20.8995 26.3125 20.9512 26.2779 21.0081 26.2544C21.065 26.2308 21.1259 26.2187 21.1875 26.2188H28.6875C28.7491 26.2187 28.81 26.2308 28.8669 26.2544C28.9238 26.2779 28.9755 26.3125 29.019 26.356C29.0625 26.3995 29.0971 26.4512 29.1206 26.5081C29.1442 26.565 29.1563 26.6259 29.1562 26.6875V29.0312C29.1563 29.0928 29.1442 29.1538 29.1206 29.2107C29.0971 29.2675 29.0625 29.3192 29.019 29.3627C28.9755 29.4063 28.9238 29.4408 28.8669 29.4644C28.81 29.4879 28.7491 29.5 28.6875 29.5ZM21.6562 28.5625H28.2188V27.1562H21.6562V28.5625ZM18.375 32.7812H16.0312C15.6584 32.7808 15.301 32.6326 15.0373 32.3689C14.7737 32.1053 14.6254 31.7478 14.625 31.375V15.4375C14.6254 15.0647 14.7737 14.7072 15.0373 14.4436C15.301 14.1799 15.6584 14.0317 16.0312 14.0313H18.375C18.4366 14.0312 18.4975 14.0433 18.5544 14.0669C18.6113 14.0905 18.663 14.125 18.7065 14.1685C18.75 14.212 18.7845 14.2637 18.8081 14.3206C18.8317 14.3775 18.8438 14.4384 18.8438 14.5V32.3125C18.8438 32.3741 18.8317 32.435 18.8081 32.4919C18.7845 32.5488 18.75 32.6005 18.7065 32.644C18.663 32.6875 18.6113 32.722 18.5544 32.7456C18.4975 32.7692 18.4366 32.7813 18.375 32.7812ZM16.0312 14.9688C15.907 14.9689 15.7878 15.0183 15.6999 15.1062C15.612 15.1941 15.5626 15.3132 15.5625 15.4375V31.375C15.5626 31.4993 15.612 31.6184 15.6999 31.7063C15.7878 31.7942 15.907 31.8436 16.0312 31.8438H17.9062V14.9688H16.0312ZM24.9375 18.25C24.8759 18.25 24.815 18.2379 24.7581 18.2144C24.7012 18.1908 24.6495 18.1563 24.606 18.1127C24.5625 18.0692 24.5279 18.0175 24.5044 17.9607C24.4808 17.9038 24.4687 17.8428 24.4688 17.7812V16.8438C24.4688 16.7194 24.5181 16.6002 24.606 16.5123C24.694 16.4244 24.8132 16.375 24.9375 16.375C25.0618 16.375 25.181 16.4244 25.269 16.5123C25.3569 16.6002 25.4062 16.7194 25.4062 16.8438V17.7812C25.4063 17.8428 25.3942 17.9038 25.3706 17.9607C25.3471 18.0175 25.3125 18.0692 25.269 18.1127C25.2255 18.1563 25.1738 18.1908 25.1169 18.2144C25.06 18.2379 24.9991 18.25 24.9375 18.25Z" fill="#CC886A"/>
<g clip-path="url(#clip0_119_892)">
<path d="M23 0C10.5791 0 0 10.5792 0 23C0 35.4208 10.5791 45 23 45C35.4209 45 45 35.4208 45 23C45 10.5792 35.4209 0 23 0ZM23 1C34.9142 1 44 11.0858 44 23C44 34.9142 34.9142 44 23 44C11.0858 44 1 34.9142 1 23C1 11.0858 11.0858 1 23 1Z" fill="#CC886A"/>
</g>
<defs>
<clipPath id="clip0_119_892">
<rect width="45" height="45" fill="white"/>
</clipPath>
</defs>
</svg>
