<svg id="facebook" viewBox="0 0 25 25" fill="none" xmlns="http://www.w3.org/2000/svg">
<g clip-path="url(#clip0_1_88)">
<path d="M25 13C25 6.05423 19.9036 0 13 0C6.09644 0 0 6.05423 0 13C0 19.2773 5.02419 24.0566 11 25V16H7V13H11V10C11 6.84803 12.1448 5 15 5C16.3676 5 18 5 18 5V8H16C14.4472 8 14 9.00542 14 10V13H18L17 16H14V25C19.9758 24.0566 25 19.2773 25 13Z" fill="#222A31"/>
<path d="M17 15.9176L18 12.94H14V9.96253C14 8.98711 14.4027 7.97752 16 7.97752H18V5C18 5 16.4069 5 15 5C12.0629 5 10 6.8713 10 9.96253V12.94H7V15.9176H10V24.8501C11.3313 25.05 12.6687 25.05 14 24.8501V15.9176H17Z" fill="#F7F7F7"/>
</g>
<defs>
<clipPath id="clip0_1_88">
<rect width="25" height="25" fill="white"/>
</clipPath>
</defs>
</svg>
