<svg id="facebook-accent" viewBox="0 0 35 35" fill="none" xmlns="http://www.w3.org/2000/svg">
<g clip-path="url(#clip0_1_246)">
<path d="M35 18C35 8.27593 27.665 0 18 0C8.33502 0 0 8.27593 0 18C0 26.7882 6.63387 33.6792 15 35V23H10V18H15V14C15 9.58724 17.0027 7 21 7C22.9147 7 25 7 25 7V12H23C20.8261 12 20 12.6076 20 14V18H25L24 23H20V35C28.3661 33.6792 35 26.7882 35 18Z" fill="#B24D2B"/>
<path d="M24 22.8801L25 17.9176H20V13.9475C20 12.582 20.8218 11.9625 23 11.9625H25V7C25 7 22.9184 7 21 7C16.9948 7 14 9.61982 14 13.9475V17.9176H10V22.8801H14V34.7901C15.8154 35.07 18.1846 35.07 20 34.7901V22.8801H24Z" fill="#F7F7F7"/>
</g>
<defs>
<clipPath id="clip0_1_246">
<rect width="35" height="35" fill="white"/>
</clipPath>
</defs>
</svg>
