<svg width="26" height="26" viewBox="0 0 26 26" fill="none" xmlns="http://www.w3.org/2000/svg">
<circle cx="12.6963" cy="13.1597" r="12.5" fill="#565C65"/>
<g clip-path="url(#clip0_114_486)">
<path fill-rule="evenodd" clip-rule="evenodd" d="M17.294 12.6571H16.2511C16.3271 12.952 16.372 13.2602 16.372 13.5789C16.372 15.6149 14.7218 17.265 12.6861 17.265C10.6505 17.265 9.00028 15.6149 9.00028 13.5789C9.00028 13.2602 9.04536 12.952 9.12135 12.6571H8.07836V17.7257C8.07836 17.9798 8.28474 18.1861 8.53959 18.1861H16.8328C16.8933 18.1862 16.9532 18.1743 17.0092 18.1512C17.0651 18.1281 17.1159 18.0942 17.1587 18.0514C17.2016 18.0087 17.2356 17.9579 17.2588 17.902C17.282 17.8462 17.2939 17.7863 17.294 17.7257V12.6571ZM17.294 9.43202C17.294 9.37148 17.282 9.31154 17.2588 9.25563C17.2356 9.19971 17.2016 9.14891 17.1588 9.10613C17.116 9.06335 17.0652 9.02943 17.0092 9.0063C16.9533 8.98317 16.8933 8.97128 16.8328 8.97132H15.4508C15.3286 8.97132 15.2114 9.01986 15.125 9.10625C15.0386 9.19265 14.99 9.30982 14.99 9.43202V10.8145C14.99 10.875 15.0019 10.9349 15.0251 10.9908C15.0482 11.0467 15.0822 11.0975 15.125 11.1403C15.1678 11.1831 15.2186 11.217 15.2745 11.2402C15.3304 11.2633 15.3903 11.2752 15.4508 11.2752H16.8328C16.8933 11.2752 16.9533 11.2634 17.0092 11.2402C17.0652 11.2171 17.116 11.1832 17.1588 11.1404C17.2016 11.0976 17.2356 11.0468 17.2588 10.9909C17.282 10.935 17.294 10.8751 17.294 10.8145V9.43202ZM12.686 11.2752C11.4136 11.2752 10.3822 12.3064 10.3822 13.5789C10.3822 14.8511 11.4136 15.8829 12.686 15.8829C13.9585 15.8829 14.99 14.8511 14.99 13.5789C14.99 12.3064 13.9585 11.2752 12.686 11.2752V11.2752ZM17.294 19.5688H8.07826C7.3151 19.5688 6.69629 18.9498 6.69629 18.186V8.97132C6.69629 8.20806 7.3151 7.58936 8.07826 7.58936H17.294C18.0573 7.58936 18.676 8.20806 18.676 8.97132V18.186C18.6759 18.9498 18.0573 19.5688 17.294 19.5688" fill="#F7F7F7"/>
</g>
<defs>
<clipPath id="clip0_114_486">
<rect width="12" height="12" fill="white" transform="translate(6.69629 7.58936)"/>
</clipPath>
</defs>
</svg>
